<?xml version="1.0" encoding="utf-8"?>
<!-- Generator: Adobe Illustrator 15.0.0, SVG Export Plug-In . SVG Version: 6.00 Build 0)  -->
<!DOCTYPE svg PUBLIC "-//W3C//DTD SVG 1.1//EN" "http://www.w3.org/Graphics/SVG/1.1/DTD/svg11.dtd">
<svg version="1.1" id="Layer_1" xmlns="http://www.w3.org/2000/svg" xmlns:xlink="http://www.w3.org/1999/xlink" x="0px" y="0px"
	 width="64px" height="64px" viewBox="0 0 64 64" enable-background="new 0 0 64 64" xml:space="preserve">
<g>
	<g>
		<g>
			<path fill="#838B94" d="M31,10c-0.333,0-0.667,0-1,0c0-0.333,0-0.667,0-1c0.333,0,0.667,0,1,0C31,9.333,31,9.666,31,10z"/>
			<path fill="#838B94" d="M34,10c-0.333,0-0.667,0-1,0c0-0.333,0-0.667,0-1c0.333,0,0.667,0,1,0C34,9.333,34,9.666,34,10z"/>
			<path fill="#838B94" d="M30,10c0,0.667,0,1.333,0,2c-0.333,0-0.667,0-1,0s-0.667,0-1,0s-0.667,0-1,0c0-0.333,0-0.667,0-1
				c0.625,0,1.25,0,1.875,0c0.025-0.017,0.104,0.021,0.125,0c0.016-0.015-0.005-0.103,0-0.125c0.009-0.036,0-0.088,0-0.125
				c0-0.042,0-0.083,0-0.125c0-0.083,0-0.167,0-0.25c0-0.125,0-0.25,0-0.375C29.333,10,29.666,10,30,10z"/>
			<path fill="#FFFFFF" d="M30,10c0.333,0,0.667,0,1,0c0,0.333,0,0.667,0,1s0,0.667,0,1c-0.333,0-0.667,0-1,0
				C30,11.333,30,10.666,30,10z"/>
			<path fill="#101010" d="M31,10c0.333,0,0.667,0,1,0c0,0.333,0,0.667,0,1c-0.333,0-0.667,0-1,0C31,10.666,31,10.333,31,10z"/>
			<path fill="#838B94" d="M32,10c0.333,0,0.667,0,1,0c0,0.333,0,0.667,0,1c-0.333,0-0.667,0-1,0C32,10.666,32,10.333,32,10z"/>
			<path fill="#FFFFFF" d="M33,10c0.333,0,0.667,0,1,0c0,0.333,0,0.667,0,1c-0.333,0-0.667,0-1,0C33,10.666,33,10.333,33,10z"/>
			<path fill="#838B94" d="M34,10c0.667,0,1.333,0,2,0c0,0.333,0,0.667,0,1s0,0.667,0,1c-0.333,0-0.667,0-1,0c0-0.333,0-0.667,0-1
				c-0.167,0-0.333,0-0.5,0s-0.333,0-0.5,0C34,10.666,34,10.333,34,10z"/>
			<path fill="#101010" d="M36,10c0.333,0,0.667,0,1,0c0,0.333,0,0.667,0,1c-0.333,0-0.667,0-1,0C36,10.666,36,10.333,36,10z"/>
			<path fill="#101010" d="M16,11c0,0.333,0,0.667,0,1c-0.333,0-0.667,0-1,0c0-0.333,0-0.667,0-1C15.333,11,15.666,11,16,11z"/>
			<path fill="#885030" d="M16,11c0.667,0,1.333,0,2,0c0,1,0,2,0,3c-0.667,0-1.333,0-2,0c0-0.333,0-0.667,0-1c0.333,0,0.667,0,1,0
				c0-0.333,0-0.667,0-1c-0.167,0-0.333,0-0.5,0s-0.333,0-0.5,0C16,11.666,16,11.333,16,11z"/>
			<path fill="#CDCDD5" d="M31,11c0.333,0,0.667,0,1,0c0,0.333,0,0.667,0,1c-0.333,0-0.667,0-1,0C31,11.666,31,11.333,31,11z"/>
			<path fill="#101010" d="M32,11c0.333,0,0.667,0,1,0c0,0.333,0,0.667,0,1c-0.333,0-0.667,0-1,0C32,11.666,32,11.333,32,11z"/>
			<path fill="#CDCDD5" d="M33,11c0.333,0,0.667,0,1,0c0.167,0,0.333,0,0.5,0s0.333,0,0.5,0c0,0.333,0,0.667,0,1
				c-0.667,0-1.333,0-2,0C33,11.666,33,11.333,33,11z"/>
			<path fill="#FFFFFF" d="M36,11c0.333,0,0.667,0,1,0c0,0.667,0,1.333,0,2c-0.333,0-0.667,0-1,0c0-0.333,0-0.667,0-1
				S36,11.333,36,11z"/>
			<path fill="#101010" d="M37,11c0.333,0,0.667,0,1,0c0,0.333,0,0.667,0,1c0.667,0,1.333,0,2,0c0,0.333,0,0.667,0,1
				c-0.333,0-0.667,0-1,0s-0.667,0-1,0c0,0.167,0,0.333,0,0.5s0,0.333,0,0.5c-0.333,0-0.667,0-1,0c0-0.333,0-0.667,0-1
				C37,12.333,37,11.666,37,11z"/>
			<path fill="#101010" d="M15,12c0,0.333,0,0.667,0,1s0,0.667,0,1c-0.333,0-0.667,0-1,0c0-0.667,0-1.333,0-2
				C14.333,12,14.666,12,15,12z"/>
			<path fill="#F8D8C8" d="M15,12c0.333,0,0.667,0,1,0c0,0.333,0,0.667,0,1c-0.333,0-0.667,0-1,0C15,12.666,15,12.333,15,12z"/>
			<path fill="#E8B090" d="M16,12c0.167,0,0.333,0,0.5,0s0.333,0,0.5,0c0,0.333,0,0.667,0,1c-0.333,0-0.667,0-1,0
				C16,12.666,16,12.333,16,12z"/>
			<path fill="#838B94" d="M27,12c0,0.333,0,0.667,0,1s0,0.667,0,1c-0.333,0-0.667,0-1,0c0-0.333,0-0.667,0-1
				c-0.167,0-0.333,0-0.5,0s-0.333,0-0.5,0c0-0.333,0-0.667,0-1C25.666,12,26.333,12,27,12z"/>
			<path fill="#FFFFFF" d="M27,12c0.333,0,0.667,0,1,0c0,0.333,0,0.667,0,1c-0.333,0-0.667,0-1,0C27,12.666,27,12.333,27,12z"/>
			<path fill="#CDCDD5" d="M28,12c0.333,0,0.667,0,1,0c0,0.333,0,0.667,0,1c-0.333,0-0.667,0-1,0C28,12.666,28,12.333,28,12z"/>
			<path fill="#3E456A" d="M29,12c0.333,0,0.667,0,1,0s0.667,0,1,0s0.667,0,1,0s0.667,0,1,0c0.667,0,1.333,0,2,0
				c0,0.333,0,0.667,0,1c-0.333,0-0.667,0-1,0c-1.333,0-2.667,0-4,0c0,0.167,0,0.333,0,0.5s0,0.333,0,0.5c-1,0-2,0-3,0
				c0-0.333,0-0.667,0-1c0.333,0,0.667,0,1,0s0.667,0,1,0C29,12.666,29,12.333,29,12z"/>
			<path fill="#CDCDD5" d="M35,12c0.333,0,0.667,0,1,0c0,0.333,0,0.667,0,1c-0.333,0-0.667,0-1,0C35,12.666,35,12.333,35,12z"/>
			<path fill="#3D4AF7" d="M9,15c0,0.667,0,1.333,0,2c-0.333,0-0.667,0-1,0c0-0.667,0-1.333,0-2c-0.167,0-0.333,0-0.5,0
				S7.167,15,7,15c0-0.333,0-0.667,0-1s0-0.667,0-1c0.333,0,0.667,0,1,0c0,0.292,0,0.583,0,0.875C8.018,13.9,7.979,13.979,8,14
				c0.016,0.016,0.104-0.006,0.125,0c0.036,0.009,0.088,0,0.125,0c0.042,0,0.083,0,0.125,0c0.083,0,0.167,0,0.25,0
				C8.75,14,8.875,14,9,14C9,14.333,9,14.667,9,15z"/>
			<path fill="#E8B090" d="M15,13c0.333,0,0.667,0,1,0c0,0.333,0,0.667,0,1c-0.333,0-0.667,0-1,0C15,13.667,15,13.333,15,13z"/>
			<path fill="#838B94" d="M25,13c0,0.333,0,0.667,0,1s0,0.667,0,1c-0.333,0-0.667,0-1,0c0-0.667,0-1.333,0-2
				C24.333,13,24.666,13,25,13z"/>
			<path fill="#CDCDD5" d="M25,13c0.167,0,0.333,0,0.5,0s0.333,0,0.5,0c0,0.333,0,0.667,0,1c-0.333,0-0.667,0-1,0
				C25,13.667,25,13.333,25,13z"/>
			<path fill="#ACB4DE" d="M34,13c0,0.333,0,0.667,0,1c0.333,0,0.667,0,1,0s0.667,0,1,0c0,0.333,0,0.667,0,1c0.167,0,0.333,0,0.5,0
				s0.333,0,0.5,0c0,0.5,0,1,0,1.5s0,1,0,1.5c-0.333,0-0.667,0-1,0c0,0.333,0,0.667,0,1c-0.333,0-0.667,0-1,0s-0.667,0-1,0
				c0,0.167,0,0.333,0,0.5s0,0.333,0,0.5c-1.333,0-2.667,0-4,0c0-0.667,0-1.333,0-2c-0.125,0-0.25,0-0.375,0c-0.167,0-0.333,0-0.5,0
				c-0.042,0-0.083,0-0.125,0c0,0.167,0,0.333,0,0.5s0,0.333,0,0.5c-0.333,0-0.667,0-1,0s-0.667,0-1,0s-0.667,0-1,0
				c0-0.333,0-0.667,0-1c-0.167,0-0.333,0-0.5,0s-0.333,0-0.5,0c0-0.667,0-1.333,0-2c0-0.333,0-0.667,0-1c0.667,0,1.333,0,2,0
				c0-0.167,0-0.333,0-0.5s0-0.333,0-0.5c1,0,2,0,3,0c0-0.167,0-0.333,0-0.5s0-0.333,0-0.5C31.333,13,32.667,13,34,13z"/>
			<path fill="#7B83B4" d="M34,13c0.333,0,0.667,0,1,0c0,0.333,0,0.667,0,1c-0.333,0-0.667,0-1,0C34,13.667,34,13.333,34,13z"/>
			<path fill="#3E456A" d="M35,13c0.333,0,0.667,0,1,0s0.667,0,1,0c0,0.333,0,0.667,0,1c-0.333,0-0.667,0-1,0s-0.667,0-1,0
				C35,13.667,35,13.333,35,13z"/>
			<path fill="#CDCDD5" d="M39,13c0,0.333,0,0.667,0,1c-0.333,0-0.667,0-1,0c0-0.167,0-0.333,0-0.5s0-0.333,0-0.5
				C38.333,13,38.667,13,39,13z"/>
			<path fill="#FFFFFF" d="M39,13c0.333,0,0.667,0,1,0c0,0.333,0,0.667,0,1c-0.333,0-0.667,0-1,0C39,13.667,39,13.333,39,13z"/>
			<path fill="#101010" d="M40,13c0.333,0,0.667,0,1,0c0,0.333,0,0.667,0,1c-0.333,0-0.667,0-1,0C40,13.667,40,13.333,40,13z"/>
			<path fill="#CDCDD5" d="M7,14c0,0.333,0,0.667,0,1s0,0.667,0,1c-0.667,0-1.333,0-2,0c-0.333,0-0.667,0-1,0c0-0.333,0-0.667,0-1
				c0.625,0,1.25,0,1.875,0C5.9,14.983,5.979,15.021,6,15c0.016-0.015-0.005-0.103,0-0.125c0.009-0.036,0-0.088,0-0.125
				c0-0.042,0-0.083,0-0.125c0-0.083,0-0.167,0-0.25C6,14.25,6,14.125,6,14C6.333,14,6.666,14,7,14z"/>
			<path fill="#885030" d="M14,14c0,0.333,0,0.667,0,1c-0.333,0-0.667,0-1,0s-0.667,0-1,0c0-0.333,0-0.667,0-1
				C12.666,14,13.333,14,14,14z"/>
			<path fill="#E8B090" d="M14,14c0.333,0,0.667,0,1,0c0,0.333,0,0.667,0,1s0,0.667,0,1c-0.333,0-0.667,0-1,0c0,0.167,0,0.333,0,0.5
				s0,0.333,0,0.5c-0.333,0-0.667,0-1,0c0-0.333,0-0.667,0-1s0-0.667,0-1c0.333,0,0.667,0,1,0C14,14.667,14,14.333,14,14z"/>
			<path fill="#885030" d="M15,14c0.333,0,0.667,0,1,0c0,0.333,0,0.667,0,1c-0.333,0-0.667,0-1,0C15,14.667,15,14.333,15,14z"/>
			<path fill="#838B94" d="M16,14c0.667,0,1.333,0,2,0c0.333,0,0.667,0,1,0c0,0.333,0,0.667,0,1c-0.333,0-0.667,0-1,0
				c-0.667,0-1.333,0-2,0C16,14.667,16,14.333,16,14z"/>
			<path fill="#3E456A" d="M25,14c0.333,0,0.667,0,1,0s0.667,0,1,0c0,0.167,0,0.333,0,0.5s0,0.333,0,0.5c-0.667,0-1.333,0-2,0
				C25,14.667,25,14.333,25,14z"/>
			<path fill="#7B83B4" d="M36,14c0.333,0,0.667,0,1,0c0,0.333,0,0.667,0,1c-0.167,0-0.333,0-0.5,0s-0.333,0-0.5,0
				C36,14.667,36,14.333,36,14z"/>
			<path fill="#3E456A" d="M37,14c0.333,0,0.667,0,1,0c0,0.333,0,0.667,0,1c-0.333,0-0.667,0-1,0C37,14.667,37,14.333,37,14z"/>
			<path fill="#101010" d="M38,14c0.333,0,0.667,0,1,0c0,0.333,0,0.667,0,1c-0.333,0-0.667,0-1,0C38,14.667,38,14.333,38,14z"/>
			<path fill="#CDCDD5" d="M39,14c0.333,0,0.667,0,1,0c0,0.333,0,0.667,0,1c-0.333,0-0.667,0-1,0C39,14.667,39,14.333,39,14z"/>
			<path fill="#838B94" d="M40,14c0.333,0,0.667,0,1,0c0,0.333,0,0.667,0,1c-0.333,0-0.667,0-1,0C40,14.667,40,14.333,40,14z"/>
			<path fill="#838B94" d="M43,15c-0.333,0-0.667,0-1,0c0-0.333,0-0.667,0-1c0.333,0,0.667,0,1,0C43,14.333,43,14.667,43,15z"/>
			<path fill="#CDCDD5" d="M2,15c0,0.333,0,0.667,0,1c-0.333,0-0.667,0-1,0c0-0.333,0-0.667,0-1C1.333,15,1.666,15,2,15z"/>
			<path fill="#838B94" d="M2,15c0.667,0,1.333,0,2,0c0,0.333,0,0.667,0,1c-0.667,0-1.333,0-2,0C2,15.667,2,15.333,2,15z"/>
			<path fill="#08316A" d="M7,15c0.167,0,0.333,0,0.5,0s0.333,0,0.5,0c0,0.667,0,1.333,0,2c-0.333,0-0.667,0-1,0
				c0-0.333,0-0.667,0-1S7,15.333,7,15z"/>
			<path fill="#101010" d="M9,15c1,0,2,0,3,0c0,0.333,0,0.667,0,1c0.167,0,0.333,0,0.5,0s0.333,0,0.5,0c0,0.333,0,0.667,0,1
				c-0.667,0-1.333,0-2,0c0-0.333,0-0.667,0-1c-0.333,0-0.667,0-1,0c0,0.125,0,0.25,0,0.375c0,0.208,0,0.417,0,0.625
				c-0.333,0-0.667,0-1,0C9,16.333,9,15.667,9,15z"/>
			<path fill="#F8D8C8" d="M12,15c0.333,0,0.667,0,1,0c0,0.333,0,0.667,0,1c-0.167,0-0.333,0-0.5,0s-0.333,0-0.5,0
				C12,15.667,12,15.333,12,15z"/>
			<path fill="#838B94" d="M15,15c0.333,0,0.667,0,1,0c0,0.333,0,0.667,0,1c-0.333,0-0.667,0-1,0C15,15.667,15,15.333,15,15z"/>
			<path fill="#FFFFFF" d="M16,15c0.667,0,1.333,0,2,0c0,0.333,0,0.667,0,1c-0.333,0-0.667,0-1,0c0,0.167,0,0.333,0,0.5
				s0,0.333,0,0.5c-0.333,0-0.667,0-1,0c0-0.333,0-0.667,0-1S16,15.333,16,15z"/>
			<path fill="#CDCDD5" d="M18,15c0.333,0,0.667,0,1,0c0,0.333,0,0.667,0,1c-0.333,0-0.667,0-1,0C18,15.667,18,15.333,18,15z"/>
			<path fill="#838B94" d="M19,15c0.333,0,0.667,0,1,0c0,0.333,0,0.667,0,1c-0.333,0-0.667,0-1,0C19,15.667,19,15.333,19,15z"/>
			<path fill="#3E456A" d="M24,15c0.333,0,0.667,0,1,0c0,0.333,0,0.667,0,1c-0.333,0-0.667,0-1,0C24,15.667,24,15.333,24,15z"/>
			<path fill="#7B83B4" d="M37,15c0.333,0,0.667,0,1,0s0.667,0,1,0c0,0.333,0,0.667,0,1c0.167,0,0.333,0,0.5,0s0.333,0,0.5,0
				c0,0.333,0,0.667,0,1c0.167,0,0.333,0,0.5,0s0.333,0,0.5,0c0,0.333,0,0.667,0,1c0.167,0,0.333,0,0.5,0s0.333,0,0.5,0
				c0,0.333,0,0.667,0,1c0.167,0,0.333,0,0.5,0s0.333,0,0.5,0c0,0.333,0,0.667,0,1c0.333,0,0.667,0,1,0c0,0.333,0,0.667,0,1
				c-1,0-2,0-3,0c0-0.333,0-0.667,0-1c-0.167,0-0.333,0-0.5,0s-0.333,0-0.5,0c0-0.333,0-0.667,0-1c-0.667,0-1.333,0-2,0
				c0,0.167,0,0.333,0,0.5s0,0.333,0,0.5c-0.333,0-0.667,0-1,0c0,0.333,0,0.667,0,1c-0.333,0-0.667,0-1,0c0-0.333,0-0.667,0-1
				c-0.333,0-0.667,0-1,0c0-0.333,0-0.667,0-1c0.333,0,0.667,0,1,0c0-0.333,0-0.667,0-1c0.333,0,0.667,0,1,0c0-0.5,0-1,0-1.5
				S37,15.5,37,15z"/>
			<path fill="#101010" d="M39,15c0.333,0,0.667,0,1,0c0,0.333,0,0.667,0,1c-0.167,0-0.333,0-0.5,0s-0.333,0-0.5,0
				C39,15.667,39,15.333,39,15z"/>
			<path fill="#CDCDD5" d="M40,15c0.333,0,0.667,0,1,0c0,0.333,0,0.667,0,1c-0.333,0-0.667,0-1,0C40,15.667,40,15.333,40,15z"/>
			<path fill="#838B94" d="M41,15c0.333,0,0.667,0,1,0c0,0.333,0,0.667,0,1c-0.333,0-0.667,0-1,0C41,15.667,41,15.333,41,15z"/>
			<path fill="#FFFFFF" d="M42,15c0.333,0,0.667,0,1,0c0,0.333,0,0.667,0,1s0,0.667,0,1c-0.333,0-0.667,0-1,0c0-0.333,0-0.667,0-1
				S42,15.333,42,15z"/>
			<path fill="#101010" d="M43,15c0.333,0,0.667,0,1,0c0,0.333,0,0.667,0,1c-0.333,0-0.667,0-1,0C43,15.667,43,15.333,43,15z"/>
			<path fill="#838B94" d="M5,16c0.667,0,1.333,0,2,0c0,0.333,0,0.667,0,1c-0.667,0-1.333,0-2,0C5,16.666,5,16.333,5,16z"/>
			<path fill="#838B94" d="M15,16c0,0.667,0,1.333,0,2c-0.333,0-0.667,0-1,0c0-0.333,0-0.667,0-1c0-0.167,0-0.333,0-0.5
				s0-0.333,0-0.5C14.333,16,14.666,16,15,16z"/>
			<path fill="#CDCDD5" d="M15,16c0.333,0,0.667,0,1,0c0,0.333,0,0.667,0,1c0.333,0,0.667,0,1,0c0,1,0,2,0,3c-0.333,0-0.667,0-1,0
				c0-0.333,0-0.667,0-1c-0.333,0-0.667,0-1,0c0-0.333,0-0.667,0-1C15,17.333,15,16.666,15,16z"/>
			<path fill="#CDCDD5" d="M18,16c0,0.333,0,0.667,0,1c-0.333,0-0.667,0-1,0c0-0.167,0-0.333,0-0.5s0-0.333,0-0.5
				C17.333,16,17.666,16,18,16z"/>
			<path fill="#838B94" d="M18,16c0.333,0,0.667,0,1,0c0,0.333,0,0.667,0,1c-0.333,0-0.667,0-1,0C18,16.666,18,16.333,18,16z"/>
			<path fill="#08316A" d="M19,16c0.333,0,0.667,0,1,0c0,0.333,0,0.667,0,1c-0.333,0-0.667,0-1,0C19,16.666,19,16.333,19,16z"/>
			<path fill="#838B94" d="M20,16c0.333,0,0.667,0,1,0c0,0.333,0,0.667,0,1c-0.333,0-0.667,0-1,0C20,16.666,20,16.333,20,16z"/>
			<path fill="#3E456A" d="M24,16c0,1,0,2,0,3c-0.333,0-0.667,0-1,0c0-0.333,0-0.667,0-1c0-0.667,0-1.333,0-2
				C23.333,16,23.666,16,24,16z"/>
			<path fill="#7B83B4" d="M24,16c0.333,0,0.667,0,1,0c0,0.667,0,1.333,0,2c0.167,0,0.333,0,0.5,0s0.333,0,0.5,0
				c0,0.333,0,0.667,0,1c-0.333,0-0.667,0-1,0c0,0.333,0,0.667,0,1c0.667,0,1.333,0,2,0c0,0.333,0,0.667,0,1c0.167,0,0.333,0,0.5,0
				s0.333,0,0.5,0c0,0.333,0,0.667,0,1c-0.667,0-1.333,0-2,0c0,0.125,0,0.25,0,0.375c0,0.083,0,0.167,0,0.25c0,0.125,0,0.25,0,0.375
				c0.167,0,0.333,0,0.5,0s0.333,0,0.5,0c0,0.667,0,1.333,0,2c-0.333,0-0.667,0-1,0c0,0.167,0,0.333,0,0.5s0,0.333,0,0.5
				c-0.333,0-0.667,0-1,0c0,0.333,0,0.667,0,1c-0.333,0-0.667,0-1,0c0-0.5,0-1,0-1.5c0-0.25,0-0.5,0-0.75c0-0.125,0-0.25,0-0.375
				s0-0.25,0-0.375c-0.125,0-0.25,0-0.375,0c-0.083,0-0.167,0-0.25,0c-0.125,0-0.25,0-0.375,0c0,0.167,0,0.333,0,0.5s0,0.333,0,0.5
				c-0.667,0-1.333,0-2,0c0-0.333,0-0.667,0-1c0.333,0,0.667,0,1,0c0-0.333,0-0.667,0-1s0-0.667,0-1c0.333,0,0.667,0,1,0
				c0-1,0-2,0-3c0.333,0,0.667,0,1,0C24,18,24,17,24,16z"/>
			<path fill="#101010" d="M40,16c0.333,0,0.667,0,1,0c0,0.333,0,0.667,0,1c-0.167,0-0.333,0-0.5,0s-0.333,0-0.5,0
				C40,16.666,40,16.333,40,16z"/>
			<path fill="#CDCDD5" d="M41,16c0.333,0,0.667,0,1,0c0,0.333,0,0.667,0,1c-0.333,0-0.667,0-1,0C41,16.666,41,16.333,41,16z"/>
			<path fill="#838B94" d="M43,16c0.333,0,0.667,0,1,0c0,0.333,0,0.667,0,1c-0.333,0-0.667,0-1,0C43,16.666,43,16.333,43,16z"/>
			<path fill="#08316A" d="M8,17c0.333,0,0.667,0,1,0c0,0.333,0,0.667,0,1c-0.333,0-0.667,0-1,0C8,17.666,8,17.333,8,17z"/>
			<path fill="#101010" d="M13,17c0.333,0,0.667,0,1,0c0,0.333,0,0.667,0,1c-0.333,0-0.667,0-1,0C13,17.666,13,17.333,13,17z"/>
			<path fill="#3D4AF7" d="M17,17c0.333,0,0.667,0,1,0s0.667,0,1,0c0,0.667,0,1.333,0,2c0.167,0,0.333,0,0.5,0s0.333,0,0.5,0
				c0,0.333,0,0.667,0,1c0.667,0,1.333,0,2,0c0,0.667,0,1.333,0,2c-0.333,0-0.667,0-1,0c0,0.167,0,0.333,0,0.5s0,0.333,0,0.5
				c-0.333,0-0.667,0-1,0c0-0.333,0-0.667,0-1c-0.167,0-0.333,0-0.5,0s-0.333,0-0.5,0c0-0.333,0-0.667,0-1c-0.333,0-0.667,0-1,0
				c0-0.333,0-0.667,0-1c-0.333,0-0.667,0-1,0C17,19,17,18,17,17z"/>
			<path fill="#4E85FF" d="M19,17c0.333,0,0.667,0,1,0c0,0.333,0,0.667,0,1c0.667,0,1.333,0,2,0c0,0.333,0,0.667,0,1s0,0.667,0,1
				c-0.667,0-1.333,0-2,0c0-0.333,0-0.667,0-1c-0.167,0-0.333,0-0.5,0s-0.333,0-0.5,0C19,18.333,19,17.666,19,17z"/>
			<path fill="#08316A" d="M20,17c0.333,0,0.667,0,1,0s0.667,0,1,0c0,0.333,0,0.667,0,1c-0.667,0-1.333,0-2,0
				C20,17.666,20,17.333,20,17z"/>
			<path fill="#101010" d="M41,17c0.333,0,0.667,0,1,0c0,0.333,0,0.667,0,1c-0.167,0-0.333,0-0.5,0s-0.333,0-0.5,0
				C41,17.666,41,17.333,41,17z"/>
			<path fill="#838B94" d="M42,17c0.333,0,0.667,0,1,0c0,0.333,0,0.667,0,1c-0.333,0-0.667,0-1,0C42,17.666,42,17.333,42,17z"/>
			<path fill="#CDCDD5" d="M43,17c0.333,0,0.667,0,1,0c0,0.667,0,1.333,0,2c-0.333,0-0.667,0-1,0c0-0.333,0-0.667,0-1
				S43,17.333,43,17z"/>
			<path fill="#101010" d="M44,17c0.333,0,0.667,0,1,0c0,0.667,0,1.333,0,2c-0.333,0-0.667,0-1,0C44,18.333,44,17.666,44,17z"/>
			<path fill="#101010" d="M14,18c0.333,0,0.667,0,1,0c0,0.333,0,0.667,0,1c-0.333,0-0.667,0-1,0C14,18.666,14,18.333,14,18z"/>
			<path fill="#08316A" d="M22,18c0.333,0,0.667,0,1,0c0,0.333,0,0.667,0,1c-0.333,0-0.667,0-1,0C22,18.666,22,18.333,22,18z"/>
			<path fill="#3E456A" d="M30,20c0,0.333,0,0.667,0,1c-0.333,0-0.667,0-1,0s-0.667,0-1,0c0-0.333,0-0.667,0-1s0-0.667,0-1
				c0.333,0,0.667,0,1,0c0-0.167,0-0.333,0-0.5s0-0.333,0-0.5c0.042,0,0.083,0,0.125,0c0.167,0,0.333,0,0.5,0
				c0.125,0,0.25,0,0.375,0C30,18.666,30,19.333,30,20z"/>
			<path fill="#101010" d="M42,18c0.333,0,0.667,0,1,0c0,0.333,0,0.667,0,1c-0.167,0-0.333,0-0.5,0s-0.333,0-0.5,0
				C42,18.666,42,18.333,42,18z"/>
			<path fill="#101010" d="M15,19c0.333,0,0.667,0,1,0c0,0.333,0,0.667,0,1c-0.333,0-0.667,0-1,0C15,19.666,15,19.333,15,19z"/>
			<path fill="#3E456A" d="M22,19c0.333,0,0.667,0,1,0c0,1,0,2,0,3c-0.333,0-0.667,0-1,0c0-0.667,0-1.333,0-2
				C22,19.666,22,19.333,22,19z"/>
			<path fill="#101010" d="M26,19c0.333,0,0.667,0,1,0c0,0.333,0,0.667,0,1c-0.667,0-1.333,0-2,0c0-0.333,0-0.667,0-1
				C25.333,19,25.666,19,26,19z"/>
			<path fill="#7B83B4" d="M27,19c0.333,0,0.667,0,1,0c0,0.333,0,0.667,0,1c-0.333,0-0.667,0-1,0C27,19.666,27,19.333,27,19z"/>
			<path fill="#3E456A" d="M35,19c0,0.333,0,0.667,0,1c0.333,0,0.667,0,1,0c0,0.333,0,0.667,0,1s0,0.667,0,1c-0.333,0-0.667,0-1,0
				s-0.667,0-1,0c0-0.667,0-1.333,0-2c0-0.167,0-0.333,0-0.5s0-0.333,0-0.5C34.333,19,34.667,19,35,19z"/>
			<path fill="#101010" d="M40,20c-0.667,0-1.333,0-2,0c0-0.167,0-0.333,0-0.5s0-0.333,0-0.5c0.667,0,1.333,0,2,0
				C40,19.333,40,19.666,40,20z"/>
			<path fill="#101010" d="M43,19c0.333,0,0.667,0,1,0c0,0.333,0,0.667,0,1c-0.333,0-0.667,0-1,0C43,19.666,43,19.333,43,19z"/>
			<path fill="#101010" d="M16,20c0.333,0,0.667,0,1,0s0.667,0,1,0c0,0.333,0,0.667,0,1c-0.667,0-1.333,0-2,0
				C16,20.666,16,20.333,16,20z"/>
			<path fill="#101010" d="M27,20c0.333,0,0.667,0,1,0c0,0.333,0,0.667,0,1c-0.167,0-0.333,0-0.5,0s-0.333,0-0.5,0
				C27,20.666,27,20.333,27,20z"/>
			<path fill="#7B83B4" d="M30,20c1.333,0,2.667,0,4,0c0,0.667,0,1.333,0,2c-0.333,0-0.667,0-1,0c0,0.667,0,1.333,0,2
				c-0.333,0-0.667,0-1,0c0-0.333,0-0.667,0-1c-0.333,0-0.667,0-1,0c0-0.667,0-1.333,0-2c-0.167,0-0.333,0-0.5,0s-0.333,0-0.5,0
				C30,20.666,30,20.333,30,20z"/>
			<path fill="#101010" d="M38,20c0,0.333,0,0.667,0,1c-0.333,0-0.667,0-1,0c0-0.333,0-0.667,0-1C37.333,20,37.667,20,38,20z"/>
			<path fill="#7B83B4" d="M38,20c0.667,0,1.333,0,2,0c0,0.333,0,0.667,0,1c0.167,0,0.333,0,0.5,0s0.333,0,0.5,0c0,0.5,0,1,0,1.5
				c0,0.25,0,0.5,0,0.75c0,0.125,0,0.25,0,0.375s0,0.25,0,0.375c0.167,0,0.333,0,0.5,0s0.333,0,0.5,0c0,1.333,0,2.667,0,4
				c-0.333,0-0.667,0-1,0c0-0.333,0-0.667,0-1c-0.333,0-0.667,0-1,0c0-0.333,0-0.667,0-1c-0.333,0-0.667,0-1,0c0-0.667,0-1.333,0-2
				c0.333,0,0.667,0,1,0c0-0.333,0-0.667,0-1c-1,0-2,0-3,0c0-0.333,0-0.667,0-1s0-0.667,0-1c0.333,0,0.667,0,1,0
				C38,20.666,38,20.333,38,20z"/>
			<path fill="#3E456A" d="M40,20c0.167,0,0.333,0,0.5,0s0.333,0,0.5,0c0,0.333,0,0.667,0,1c-0.167,0-0.333,0-0.5,0s-0.333,0-0.5,0
				C40,20.666,40,20.333,40,20z"/>
			<path fill="#101010" d="M44,20c0.333,0,0.667,0,1,0c0,0.333,0,0.667,0,1c-0.333,0-0.667,0-1,0C44,20.666,44,20.333,44,20z"/>
			<path fill="#101010" d="M18,21c0.333,0,0.667,0,1,0c0,0.333,0,0.667,0,1c-0.333,0-0.667,0-1,0C18,21.666,18,21.333,18,21z"/>
			<path fill="#101010" d="M28,21c0.333,0,0.667,0,1,0c0,0.333,0,0.667,0,1c0.333,0,0.667,0,1,0c0,0.333,0,0.667,0,1
				c-0.333,0-0.667,0-1,0s-0.667,0-1,0c0,0.167,0,0.333,0,0.5s0,0.333,0,0.5c0,0.333,0,0.667,0,1c-0.333,0-0.667,0-1,0
				c0-0.667,0-1.333,0-2c-0.167,0-0.333,0-0.5,0s-0.333,0-0.5,0c0-0.125,0-0.25,0-0.375c0-0.083,0-0.167,0-0.25
				c0-0.125,0-0.25,0-0.375c0.667,0,1.333,0,2,0C28,21.666,28,21.333,28,21z"/>
			<path fill="#885030" d="M29,21c0.333,0,0.667,0,1,0c0,0.333,0,0.667,0,1c-0.333,0-0.667,0-1,0C29,21.666,29,21.333,29,21z"/>
			<path fill="#3E456A" d="M30,21c0.167,0,0.333,0,0.5,0s0.333,0,0.5,0c0,0.667,0,1.333,0,2c-0.333,0-0.667,0-1,0
				c0-0.333,0-0.667,0-1S30,21.333,30,21z"/>
			<path fill="#101010" d="M36,21c0.333,0,0.667,0,1,0c0,0.333,0,0.667,0,1c-0.333,0-0.667,0-1,0C36,21.666,36,21.333,36,21z"/>
			<path fill="#3E456A" d="M41,21c1,0,2,0,3,0c0.333,0,0.667,0,1,0c0,0.333,0,0.667,0,1c-0.333,0-0.667,0-1,0c-0.667,0-1.333,0-2,0
				c0,0.125,0,0.25,0,0.375c0,0.167,0,0.333,0,0.5c0,0.042,0,0.083,0,0.125c0.167,0,0.333,0,0.5,0s0.333,0,0.5,0
				c0,0.333,0,0.667,0,1c0.333,0,0.667,0,1,0c0,0.667,0,1.333,0,2c0.167,0,0.333,0,0.5,0s0.333,0,0.5,0c0,0.333,0,0.667,0,1
				c-0.333,0-0.667,0-1,0s-0.667,0-1,0c0,0.125,0,0.25,0,0.375s0,0.25,0,0.375s0,0.25,0,0.375s0,0.25,0,0.375c0,0.25,0,0.5,0,0.75
				c0,0.125,0,0.25,0,0.375s0,0.25,0,0.375c-0.333,0-0.667,0-1,0c0-0.333,0-0.667,0-1c-0.333,0-0.667,0-1,0s-0.667,0-1,0
				c0-0.333,0-0.667,0-1c-0.333,0-0.667,0-1,0c0-0.667,0-1.333,0-2c0.333,0,0.667,0,1,0c0,0.333,0,0.667,0,1c0.333,0,0.667,0,1,0
				c0,0.333,0,0.667,0,1c0.333,0,0.667,0,1,0c0-1.333,0-2.667,0-4c-0.167,0-0.333,0-0.5,0s-0.333,0-0.5,0c0-0.125,0-0.25,0-0.375
				s0-0.25,0-0.375c0-0.25,0-0.5,0-0.75C41,22,41,21.5,41,21z"/>
			<path fill="#101010" d="M45,21c0.333,0,0.667,0,1,0c0,0.333,0,0.667,0,1c-0.333,0-0.667,0-1,0C45,21.666,45,21.333,45,21z"/>
			<path fill="#621000" d="M55,22c-2.667,0-5.333,0-8,0c0-0.25,0-0.5,0-0.75c0-0.083,0-0.167,0-0.25c0.083,0,0.167,0,0.25,0
				c0.167,0,0.333,0,0.5,0s0.333,0,0.5,0s0.333,0,0.5,0c0.75,0,1.5,0,2.25,0c0.792,0,1.583,0,2.375,0c0.167,0,0.333,0,0.5,0
				s0.333,0,0.5,0c0.083,0,0.167,0,0.25,0c0.125,0,0.25,0,0.375,0C55,21.333,55,21.666,55,22z"/>
			<path fill="#101010" d="M19,22c0.167,0,0.333,0,0.5,0s0.333,0,0.5,0c0,0.333,0,0.667,0,1c-0.333,0-0.667,0-1,0
				C19,22.666,19,22.333,19,22z"/>
			<path fill="#3E456A" d="M22,22c0,0.333,0,0.667,0,1c-0.333,0-0.667,0-1,0c0-0.167,0-0.333,0-0.5s0-0.333,0-0.5
				C21.333,22,21.666,22,22,22z"/>
			<path fill="#3E456A" d="M34,22c0,0.333,0,0.667,0,1s0,0.667,0,1c-0.333,0-0.667,0-1,0c0-0.667,0-1.333,0-2
				C33.333,22,33.667,22,34,22z"/>
			<path fill="#E8B090" d="M34,22c0.333,0,0.667,0,1,0c0,0.333,0,0.667,0,1c-0.333,0-0.667,0-1,0C34,22.666,34,22.333,34,22z"/>
			<path fill="#101010" d="M35,22c0.333,0,0.667,0,1,0c0,0.333,0,0.667,0,1c0.333,0,0.667,0,1,0c1,0,2,0,3,0c0,0.333,0,0.667,0,1
				c-0.333,0-0.667,0-1,0c0,0.667,0,1.333,0,2c-0.333,0-0.667,0-1,0c0-0.667,0-1.333,0-2c-0.167,0-0.333,0-0.5,0s-0.333,0-0.5,0
				c-1,0-2,0-3,0c0-0.333,0-0.667,0-1c0.333,0,0.667,0,1,0C35,22.666,35,22.333,35,22z"/>
			<path fill="#3E456A" d="M36,22c0.333,0,0.667,0,1,0c0,0.333,0,0.667,0,1c-0.333,0-0.667,0-1,0C36,22.666,36,22.333,36,22z"/>
			<path fill="#101010" d="M44,22c0,0.333,0,0.667,0,1s0,0.667,0,1c-0.333,0-0.667,0-1,0c0-0.333,0-0.667,0-1
				c-0.167,0-0.333,0-0.5,0s-0.333,0-0.5,0c0-0.042,0-0.083,0-0.125c0-0.167,0-0.333,0-0.5c0-0.125,0-0.25,0-0.375
				C42.667,22,43.333,22,44,22z"/>
			<path fill="#621000" d="M45,22c0.333,0,0.667,0,1,0s0.667,0,1,0c0,0.333,0,0.667,0,1c-0.667,0-1.333,0-2,0
				C45,22.666,45,22.333,45,22z"/>
			<path fill="#A41000" d="M47,22c2.667,0,5.333,0,8,0c0,0.333,0,0.667,0,1c0.667,0,1.333,0,2,0c0,0.333,0,0.667,0,1
				c0.167,0,0.333,0,0.5,0s0.333,0,0.5,0c0,0.333,0,0.667,0,1c0.167,0,0.333,0,0.5,0s0.333,0,0.5,0c0,0.333,0,0.667,0,1
				c0.333,0,0.667,0,1,0c0,0.25,0,0.5,0,0.75c0,0.125,0,0.25,0,0.375s0,0.25,0,0.375s0,0.25,0,0.375s0,0.25,0,0.375s0,0.25,0,0.375
				s0,0.25,0,0.375c0,0.667,0,1.333,0,2c-0.333,0-0.667,0-1,0c0,0.167,0,0.333,0,0.5s0,0.333,0,0.5c-0.333,0-0.667,0-1,0
				c0,0.667,0,1.333,0,2c-0.333,0-0.667,0-1,0c0,0.167,0,0.333,0,0.5s0,0.333,0,0.5c-0.333,0-0.667,0-1,0c0-0.333,0-0.667,0-1
				c-0.333,0-0.667,0-1,0c0-0.333,0-0.667,0-1c-0.667,0-1.333,0-2,0c0-0.333,0-0.667,0-1s0-0.667,0-1c0.333,0,0.667,0,1,0
				c0-0.167,0-0.333,0-0.5s0-0.333,0-0.5c0.333,0,0.667,0,1,0c0-0.333,0-0.667,0-1c0.333,0,0.667,0,1,0c0-0.5,0-1,0-1.5
				c0-0.25,0-0.5,0-0.75c0-0.125,0-0.25,0-0.375s0-0.25,0-0.375c-0.167,0-0.333,0-0.5,0s-0.333,0-0.5,0c0-0.333,0-0.667,0-1
				c-0.167,0-0.333,0-0.5,0s-0.333,0-0.5,0c0-0.333,0-0.667,0-1c-0.333,0-0.667,0-1,0c0-0.333,0-0.667,0-1c-1,0-2,0-3,0s-2,0-3,0
				C47,22.666,47,22.333,47,22z"/>
			<path fill="#621000" d="M55,22c0.667,0,1.333,0,2,0c0,0.333,0,0.667,0,1c-0.667,0-1.333,0-2,0C55,22.666,55,22.333,55,22z"/>
			<path fill="#08316A" d="M20,23c0.333,0,0.667,0,1,0c0,0.333,0,0.667,0,1c-0.333,0-0.667,0-1,0C20,23.666,20,23.333,20,23z"/>
			<path fill="#101010" d="M21,23c0.333,0,0.667,0,1,0c0,0.333,0,0.667,0,1c-0.333,0-0.667,0-1,0C21,23.666,21,23.333,21,23z"/>
			<path fill="#FFFFFF" d="M29,23c0,0.333,0,0.667,0,1c0.167,0,0.333,0,0.5,0s0.333,0,0.5,0c0,0.333,0,0.667,0,1
				c-0.333,0-0.667,0-1,0c0,0.333,0,0.667,0,1c-0.333,0-0.667,0-1,0c0-0.333,0-0.667,0-1s0-0.667,0-1c0-0.167,0-0.333,0-0.5
				s0-0.333,0-0.5C28.333,23,28.666,23,29,23z"/>
			<path fill="#621000" d="M29,23c0.333,0,0.667,0,1,0c0,0.333,0,0.667,0,1c-0.167,0-0.333,0-0.5,0s-0.333,0-0.5,0
				C29,23.666,29,23.333,29,23z"/>
			<path fill="#101010" d="M30,23c0.333,0,0.667,0,1,0c0,0.333,0,0.667,0,1c-0.333,0-0.667,0-1,0C30,23.666,30,23.333,30,23z"/>
			<path fill="#3E456A" d="M31,23c0.333,0,0.667,0,1,0c0,0.333,0,0.667,0,1c-0.333,0-0.667,0-1,0C31,23.666,31,23.333,31,23z"/>
			<path fill="#621000" d="M44,23c0.333,0,0.667,0,1,0c0,0.333,0,0.667,0,1c-0.333,0-0.667,0-1,0C44,23.666,44,23.333,44,23z"/>
			<path fill="#A41000" d="M45,23c0.667,0,1.333,0,2,0c0,0.333,0,0.667,0,1c-0.333,0-0.667,0-1,0s-0.667,0-1,0
				C45,23.666,45,23.333,45,23z"/>
			<path fill="#621000" d="M47,23c1,0,2,0,3,0c0,0.333,0,0.667,0,1c-1,0-2,0-3,0C47,23.666,47,23.333,47,23z"/>
			<path fill="#101010" d="M50,23c1,0,2,0,3,0c0,0.333,0,0.667,0,1c-1,0-2,0-3,0C50,23.666,50,23.333,50,23z"/>
			<path fill="#621000" d="M57,23c0.333,0,0.667,0,1,0c0,0.333,0,0.667,0,1c-0.167,0-0.333,0-0.5,0s-0.333,0-0.5,0
				C57,23.666,57,23.333,57,23z"/>
			<path fill="#3D4AF7" d="M7,25c-0.333,0-0.667,0-1,0c0-0.333,0-0.667,0-1c0.333,0,0.667,0,1,0C7,24.333,7,24.666,7,25z"/>
			<path fill="#101010" d="M10,25c0-0.333,0-0.667,0-1c0.333,0,0.667,0,1,0c0,0.333,0,0.667,0,1C10.666,25,10.333,25,10,25z"/>
			<path fill="#101010" d="M20,24c0.333,0,0.667,0,1,0c0,0.333,0,0.667,0,1c-0.333,0-0.667,0-1,0C20,24.666,20,24.333,20,24z"/>
			<path fill="#3E456A" d="M24,27c0,0.333,0,0.667,0,1c-0.333,0-0.667,0-1,0c0-0.333,0-0.667,0-1s0-0.667,0-1
				c-0.167,0-0.333,0-0.5,0s-0.333,0-0.5,0c-0.667,0-1.333,0-2,0c0-0.333,0-0.667,0-1c0.333,0,0.667,0,1,0c0.667,0,1.333,0,2,0
				c0-0.167,0-0.333,0-0.5s0-0.333,0-0.5c0.125,0,0.25,0,0.375,0c0.083,0,0.167,0,0.25,0c0.125,0,0.25,0,0.375,0
				c0,0.125,0,0.25,0,0.375s0,0.25,0,0.375c0,0.25,0,0.5,0,0.75C24,26,24,26.5,24,27z"/>
			<path fill="#E8B090" d="M30,24c0.333,0,0.667,0,1,0s0.667,0,1,0c0,0.333,0,0.667,0,1c-0.667,0-1.333,0-2,0
				C30,24.666,30,24.333,30,24z"/>
			<path fill="#3E456A" d="M32,24c0.333,0,0.667,0,1,0c0,0.333,0,0.667,0,1s0,0.667,0,1c-0.333,0-0.667,0-1,0c0-0.333,0-0.667,0-1
				S32,24.333,32,24z"/>
			<path fill="#101010" d="M33,24c0.333,0,0.667,0,1,0c0,0.333,0,0.667,0,1c-0.333,0-0.667,0-1,0C33,24.666,33,24.333,33,24z"/>
			<path fill="#621000" d="M34,24c1,0,2,0,3,0c0,0.333,0,0.667,0,1c-0.333,0-0.667,0-1,0c0,0.167,0,0.333,0,0.5s0,0.333,0,0.5
				c-0.333,0-0.667,0-1,0c0-0.333,0-0.667,0-1c-0.167,0-0.333,0-0.5,0s-0.333,0-0.5,0C34,24.666,34,24.333,34,24z"/>
			<path fill="#FFFFFF" d="M37,24c0.167,0,0.333,0,0.5,0s0.333,0,0.5,0c0,0.667,0,1.333,0,2c0,0.333,0,0.667,0,1
				c-0.333,0-0.667,0-1,0c0-0.333,0-0.667,0-1c-0.167,0-0.333,0-0.5,0s-0.333,0-0.5,0c0-0.167,0-0.333,0-0.5s0-0.333,0-0.5
				c0.333,0,0.667,0,1,0C37,24.666,37,24.333,37,24z"/>
			<path fill="#101010" d="M44,24c0.333,0,0.667,0,1,0c0,0.333,0,0.667,0,1s0,0.667,0,1c-0.167,0-0.333,0-0.5,0s-0.333,0-0.5,0
				C44,25.333,44,24.666,44,24z"/>
			<path fill="#621000" d="M45,24c0.333,0,0.667,0,1,0c0,0.333,0,0.667,0,1c-0.333,0-0.667,0-1,0C45,24.666,45,24.333,45,24z"/>
			<path fill="#101010" d="M46,24c0.333,0,0.667,0,1,0c0,0.333,0,0.667,0,1c-0.333,0-0.667,0-1,0C46,24.666,46,24.333,46,24z"/>
			<path fill="#101010" d="M53,24c0.333,0,0.667,0,1,0c0,0.333,0,0.667,0,1c-0.167,0-0.333,0-0.5,0s-0.333,0-0.5,0
				C53,24.666,53,24.333,53,24z"/>
			<path fill="#621000" d="M58,24c0.333,0,0.667,0,1,0c0,0.333,0,0.667,0,1c-0.167,0-0.333,0-0.5,0s-0.333,0-0.5,0
				C58,24.666,58,24.333,58,24z"/>
			<path fill="#08316A" d="M6,25c0.333,0,0.667,0,1,0c0,0.667,0,1.333,0,2c-0.333,0-0.667,0-1,0c0-0.333,0-0.667,0-1
				C6,25.666,6,25.333,6,25z"/>
			<path fill="#3D4AF7" d="M7,25c0.333,0,0.667,0,1,0c0,0.667,0,1.333,0,2c-0.333,0-0.667,0-1,0C7,26.333,7,25.666,7,25z"/>
			<path fill="#101010" d="M8,25c0.667,0,1.333,0,2,0c0,0.333,0,0.667,0,1c-0.333,0-0.667,0-1,0c0,0.125,0,0.25,0,0.375
				c0,0.083,0,0.167,0,0.25C9,26.75,9,26.875,9,27c-0.333,0-0.667,0-1,0C8,26.333,8,25.666,8,25z"/>
			<path fill="#101010" d="M20,25c0,0.333,0,0.667,0,1c-0.667,0-1.333,0-2,0c0-0.333,0-0.667,0-1C18.666,25,19.333,25,20,25z"/>
			<path fill="#3E456A" d="M27,25c0.333,0,0.667,0,1,0c0,0.333,0,0.667,0,1c0,0.667,0,1.333,0,2c0,0.333,0,0.667,0,1s0,0.667,0,1
				c-0.333,0-0.667,0-1,0c0-0.333,0-0.667,0-1c-0.167,0-0.333,0-0.5,0s-0.333,0-0.5,0c0-0.333,0-0.667,0-1c0.333,0,0.667,0,1,0
				c0-0.667,0-1.333,0-2c-0.167,0-0.333,0-0.5,0s-0.333,0-0.5,0c0-0.167,0-0.333,0-0.5s0-0.333,0-0.5C26.333,25,26.666,25,27,25z"/>
			<path fill="#A41000" d="M30,25c0,0.333,0,0.667,0,1c-0.333,0-0.667,0-1,0c0-0.333,0-0.667,0-1C29.333,25,29.666,25,30,25z"/>
			<path fill="#F8D8C8" d="M30,25c0.667,0,1.333,0,2,0c0,0.333,0,0.667,0,1c0.333,0,0.667,0,1,0s0.667,0,1,0c0,0.333,0,0.667,0,1
				c1,0,2,0,3,0c0.333,0,0.667,0,1,0c0,0.333,0,0.667,0,1c-0.333,0-0.667,0-1,0c0,0.333,0,0.667,0,1c-0.333,0-0.667,0-1,0
				c-0.667,0-1.333,0-2,0c0-0.333,0-0.667,0-1c-0.333,0-0.667,0-1,0c0,0.125,0,0.25,0,0.375c0,0.167,0,0.333,0,0.5
				c0,0.042,0,0.083,0,0.125c0.167,0,0.333,0,0.5,0s0.333,0,0.5,0c0,0.333,0,0.667,0,1c-0.667,0-1.333,0-2,0c-0.333,0-0.667,0-1,0
				c0-0.333,0-0.667,0-1c-0.333,0-0.667,0-1,0s-0.667,0-1,0c0-0.333,0-0.667,0-1c0-0.667,0-1.333,0-2c0.333,0,0.667,0,1,0
				C30,25.666,30,25.333,30,25z"/>
			<path fill="#E8B090" d="M33,25c0.333,0,0.667,0,1,0c0,0.333,0,0.667,0,1c-0.333,0-0.667,0-1,0C33,25.666,33,25.333,33,25z"/>
			<path fill="#A41000" d="M34,25c0.167,0,0.333,0,0.5,0s0.333,0,0.5,0c0,0.333,0,0.667,0,1c0.333,0,0.667,0,1,0
				c0.167,0,0.333,0,0.5,0s0.333,0,0.5,0c0,0.333,0,0.667,0,1c-1,0-2,0-3,0c0-0.333,0-0.667,0-1C34,25.666,34,25.333,34,25z"/>
			<path fill="#101010" d="M54,25c0.167,0,0.333,0,0.5,0s0.333,0,0.5,0c0,0.333,0,0.667,0,1c-0.333,0-0.667,0-1,0
				C54,25.666,54,25.333,54,25z"/>
			<path fill="#621000" d="M59,25c0.333,0,0.667,0,1,0c0,0.333,0,0.667,0,1c-0.333,0-0.667,0-1,0C59,25.666,59,25.333,59,25z"/>
			<path fill="#CDCDD5" d="M6,26c0,0.333,0,0.667,0,1s0,0.667,0,1c-0.667,0-1.333,0-2,0c0-0.333,0-0.667,0-1
				c0.292,0,0.583,0,0.875,0C4.9,26.983,4.979,27.021,5,27c0.016-0.015-0.005-0.103,0-0.125c0.009-0.036,0-0.088,0-0.125
				c0-0.042,0-0.083,0-0.125c0-0.083,0-0.167,0-0.25C5,26.25,5,26.125,5,26C5.333,26,5.666,26,6,26z"/>
			<path fill="#08316A" d="M22,26c0.167,0,0.333,0,0.5,0s0.333,0,0.5,0c0,0.333,0,0.667,0,1c-0.333,0-0.667,0-1,0
				C22,26.666,22,26.333,22,26z"/>
			<path fill="#3E456A" d="M26,26c0,0.333,0,0.667,0,1c-0.333,0-0.667,0-1,0c0-0.333,0-0.667,0-1C25.333,26,25.666,26,26,26z"/>
			<path fill="#7B83B4" d="M26,26c0.167,0,0.333,0,0.5,0s0.333,0,0.5,0c0,0.667,0,1.333,0,2c-0.333,0-0.667,0-1,0
				c0-0.333,0-0.667,0-1C26,26.666,26,26.333,26,26z"/>
			<path fill="#E8B090" d="M28,26c0.333,0,0.667,0,1,0c0,0.667,0,1.333,0,2c-0.333,0-0.667,0-1,0C28,27.333,28,26.666,28,26z"/>
			<path fill="#E8B090" d="M38,26c0.333,0,0.667,0,1,0c0,0.667,0,1.333,0,2c-0.333,0-0.667,0-1,0c0-0.333,0-0.667,0-1
				C38,26.666,38,26.333,38,26z"/>
			<path fill="#101010" d="M45,26c0.167,0,0.333,0,0.5,0s0.333,0,0.5,0c0,0.333,0,0.667,0,1c-0.333,0-0.667,0-1,0
				C45,26.666,45,26.333,45,26z"/>
			<path fill="#621000" d="M55,26c0.167,0,0.333,0,0.5,0s0.333,0,0.5,0c0,0.125,0,0.25,0,0.375s0,0.25,0,0.375c0,0.25,0,0.5,0,0.75
				c0,0.5,0,1,0,1.5c-0.333,0-0.667,0-1,0c0-0.125,0-0.25,0-0.375s0-0.25,0-0.375C55,27.5,55,26.75,55,26z"/>
			<path fill="#621000" d="M60,26c0.333,0,0.667,0,1,0c0,1,0,2,0,3c-0.333,0-0.667,0-1,0c0-0.125,0-0.25,0-0.375s0-0.25,0-0.375
				s0-0.25,0-0.375s0-0.25,0-0.375s0-0.25,0-0.375s0-0.25,0-0.375C60,26.5,60,26.25,60,26z"/>
			<path fill="#838B94" d="M6,27c0.333,0,0.667,0,1,0c0,0.333,0,0.667,0,1c-0.333,0-0.667,0-1,0C6,27.666,6,27.333,6,27z"/>
			<path fill="#08316A" d="M7,27c0.333,0,0.667,0,1,0c0,0.333,0,0.667,0,1c-0.333,0-0.667,0-1,0C7,27.666,7,27.333,7,27z"/>
			<path fill="#3D4AF7" d="M8,27c0.333,0,0.667,0,1,0c0,0.333,0,0.667,0,1c-0.333,0-0.667,0-1,0C8,27.666,8,27.333,8,27z"/>
			<path fill="#101010" d="M24,27c0.333,0,0.667,0,1,0s0.667,0,1,0c0,0.333,0,0.667,0,1s0,0.667,0,1c-0.333,0-0.667,0-1,0
				c0-0.333,0-0.667,0-1c-0.167,0-0.333,0-0.5,0s-0.333,0-0.5,0C24,27.666,24,27.333,24,27z"/>
			<path fill="#3D4AF7" d="M44,27c0,0.667,0,1.333,0,2c0.167,0,0.333,0,0.5,0s0.333,0,0.5,0c0,0.333,0,0.667,0,1s0,0.667,0,1
				c0.667,0,1.333,0,2,0c0,0.333,0,0.667,0,1c0.667,0,1.333,0,2,0c0,0.333,0,0.667,0,1c0.667,0,1.333,0,2,0c0.333,0,0.667,0,1,0
				c0,0.333,0,0.667,0,1s0,0.667,0,1c-0.333,0-0.667,0-1,0c0,0.167,0,0.333,0,0.5s0,0.333,0,0.5c-0.333,0-0.667,0-1,0
				c0-0.333,0-0.667,0-1c-0.667,0-1.333,0-2,0c0-0.333,0-0.667,0-1c-0.333,0-0.667,0-1,0c-0.667,0-1.333,0-2,0c0-0.333,0-0.667,0-1
				c-0.667,0-1.333,0-2,0c0-0.333,0-0.667,0-1c-0.333,0-0.667,0-1,0c0,0.167,0,0.333,0,0.5s0,0.333,0,0.5c-0.333,0-0.667,0-1,0
				c0-0.667,0-1.333,0-2c0.333,0,0.667,0,1,0c0-0.167,0-0.333,0-0.5s0-0.333,0-0.5c0.333,0,0.667,0,1,0c0-0.125,0-0.25,0-0.375
				s0-0.25,0-0.375c0-0.25,0-0.5,0-0.75c0-0.125,0-0.25,0-0.375s0-0.25,0-0.375s0-0.25,0-0.375s0-0.25,0-0.375
				C43.333,27,43.667,27,44,27z"/>
			<path fill="#08316A" d="M44,27c0.333,0,0.667,0,1,0c0,0.667,0,1.333,0,2c-0.167,0-0.333,0-0.5,0s-0.333,0-0.5,0
				C44,28.333,44,27.666,44,27z"/>
			<path fill="#CDCDD5" d="M3,28c0,0.333,0,0.667,0,1c-0.333,0-0.667,0-1,0c0-0.333,0-0.667,0-1C2.333,28,2.666,28,3,28z"/>
			<path fill="#838B94" d="M3,28c0.333,0,0.667,0,1,0c0.667,0,1.333,0,2,0c0,0.333,0,0.667,0,1c-0.125,0-0.25,0-0.375,0
				c-0.167,0-0.333,0-0.5,0C4.75,29,4.375,29,4,29c0,0.125,0,0.25,0,0.375c0,0.083,0,0.167,0,0.25C4,29.75,4,29.875,4,30
				c-0.125,0-0.25,0-0.375,0s-0.25,0-0.375,0C3,30,2.75,30,2.5,30S2,30,1.75,30S1.25,30,1,30c0-0.333,0-0.667,0-1
				c0.333,0,0.667,0,1,0s0.667,0,1,0C3,28.666,3,28.333,3,28z"/>
			<path fill="#08316A" d="M8,28c0.333,0,0.667,0,1,0c0,0.333,0,0.667,0,1c-0.333,0-0.667,0-1,0C8,28.666,8,28.333,8,28z"/>
			<path fill="#101010" d="M23,28c0.333,0,0.667,0,1,0c0,0.333,0,0.667,0,1c-0.333,0-0.667,0-1,0C23,28.666,23,28.333,23,28z"/>
			<path fill="#3D4AF7" d="M24,28c0.167,0,0.333,0,0.5,0s0.333,0,0.5,0c0,0.333,0,0.667,0,1c0,0.667,0,1.333,0,2
				c-0.333,0-0.667,0-1,0c0-0.667,0-1.333,0-2C24,28.666,24,28.333,24,28z"/>
			<path fill="#885030" d="M28,28c0.333,0,0.667,0,1,0c0,0.333,0,0.667,0,1c-0.333,0-0.667,0-1,0C28,28.666,28,28.333,28,28z"/>
			<path fill="#E8B090" d="M34,29c-0.167,0-0.333,0-0.5,0s-0.333,0-0.5,0c0-0.042,0-0.083,0-0.125c0-0.167,0-0.333,0-0.5
				c0-0.125,0-0.25,0-0.375c0.333,0,0.667,0,1,0C34,28.333,34,28.666,34,29z"/>
			<path fill="#E8B090" d="M38,28c0,0.333,0,0.667,0,1c-0.333,0-0.667,0-1,0c0-0.333,0-0.667,0-1C37.333,28,37.667,28,38,28z"/>
			<path fill="#3E456A" d="M38,28c0.333,0,0.667,0,1,0c0,0.333,0,0.667,0,1c0.333,0,0.667,0,1,0c0,0.333,0,0.667,0,1
				c-0.333,0-0.667,0-1,0c0,0.667,0,1.333,0,2c-0.333,0-0.667,0-1,0c0-0.333,0-0.667,0-1s0-0.667,0-1s0-0.667,0-1S38,28.333,38,28z"
				/>
			<path fill="#7B83B4" d="M39,28c0.333,0,0.667,0,1,0c0,0.333,0,0.667,0,1c-0.333,0-0.667,0-1,0C39,28.666,39,28.333,39,28z"/>
			<path fill="#08316A" d="M23,29c0.333,0,0.667,0,1,0c0,0.667,0,1.333,0,2c0,0.333,0,0.667,0,1c-0.333,0-0.667,0-1,0
				c0-0.333,0-0.667,0-1s0-0.667,0-1S23,29.333,23,29z"/>
			<path fill="#838B94" d="M25,29c0.333,0,0.667,0,1,0c0,0.667,0,1.333,0,2c-0.333,0-0.667,0-1,0C25,30.333,25,29.666,25,29z"/>
			<path fill="#FFFFFF" d="M26,29c0.167,0,0.333,0,0.5,0s0.333,0,0.5,0c0,0.333,0,0.667,0,1s0,0.667,0,1c-0.333,0-0.667,0-1,0
				C26,30.333,26,29.666,26,29z"/>
			<path fill="#101010" d="M28,29c0.333,0,0.667,0,1,0c0,0.333,0,0.667,0,1c-0.333,0-0.667,0-1,0C28,29.666,28,29.333,28,29z"/>
			<path fill="#885030" d="M29,29c0.333,0,0.667,0,1,0c0,0.333,0,0.667,0,1c-0.333,0-0.667,0-1,0C29,29.666,29,29.333,29,29z"/>
			<path fill="#E8B090" d="M30,29c0.333,0,0.667,0,1,0c0,0.333,0,0.667,0,1c-0.333,0-0.667,0-1,0C30,29.666,30,29.333,30,29z"/>
			<path fill="#885030" d="M34,29c0.667,0,1.333,0,2,0c0,0.333,0,0.667,0,1c-0.333,0-0.667,0-1,0s-0.667,0-1,0
				C34,29.666,34,29.333,34,29z"/>
			<path fill="#E8B090" d="M36,29c0.333,0,0.667,0,1,0c0,0.333,0,0.667,0,1c-0.333,0-0.667,0-1,0C36,29.666,36,29.333,36,29z"/>
			<path fill="#101010" d="M37,29c0.333,0,0.667,0,1,0c0,0.333,0,0.667,0,1c-0.333,0-0.667,0-1,0C37,29.666,37,29.333,37,29z"/>
			<path fill="#CDCDD5" d="M40,29c0.333,0,0.667,0,1,0c0,0.333,0,0.667,0,1c-0.333,0-0.667,0-1,0C40,29.666,40,29.333,40,29z"/>
			<path fill="#FFFFFF" d="M41,29c0.333,0,0.667,0,1,0c0,0.333,0,0.667,0,1c-0.333,0-0.667,0-1,0C41,29.666,41,29.333,41,29z"/>
			<path fill="#08316A" d="M45,29c0.667,0,1.333,0,2,0c0,0.333,0,0.667,0,1c-0.667,0-1.333,0-2,0C45,29.666,45,29.333,45,29z"/>
			<path fill="#621000" d="M55,29c0,0.333,0,0.667,0,1c-0.333,0-0.667,0-1,0c0-0.167,0-0.333,0-0.5s0-0.333,0-0.5
				C54.333,29,54.667,29,55,29z"/>
			<path fill="#101010" d="M60,29c0.333,0,0.667,0,1,0c0,0.667,0,1.333,0,2c-0.333,0-0.667,0-1,0C60,30.333,60,29.666,60,29z"/>
			<path fill="#621000" d="M23,30c0,0.333,0,0.667,0,1c-0.333,0-0.667,0-1,0c0-0.333,0-0.667,0-1C22.333,30,22.666,30,23,30z"/>
			<path fill="#CDCDD5" d="M27,30c0.333,0,0.667,0,1,0s0.667,0,1,0c0,0.333,0,0.667,0,1c-0.333,0-0.667,0-1,0c0,0.667,0,1.333,0,2
				c-0.333,0-0.667,0-1,0c0-0.333,0-0.667,0-1c-0.167,0-0.333,0-0.5,0s-0.333,0-0.5,0c0-0.333,0-0.667,0-1c0.333,0,0.667,0,1,0
				C27,30.666,27,30.333,27,30z"/>
			<path fill="#101010" d="M29,30c0.333,0,0.667,0,1,0s0.667,0,1,0c0,0.333,0,0.667,0,1c-0.333,0-0.667,0-1,0s-0.667,0-1,0
				C29,30.666,29,30.333,29,30z"/>
			<path fill="#885030" d="M31,30c0.333,0,0.667,0,1,0c0,0.333,0,0.667,0,1c-0.333,0-0.667,0-1,0C31,30.666,31,30.333,31,30z"/>
			<path fill="#E8B090" d="M32,30c0.667,0,1.333,0,2,0c0.333,0,0.667,0,1,0c0,0.333,0,0.667,0,1c-0.667,0-1.333,0-2,0
				c-0.333,0-0.667,0-1,0C32,30.666,32,30.333,32,30z"/>
			<path fill="#101010" d="M35,30c0.333,0,0.667,0,1,0s0.667,0,1,0c0,0.333,0,0.667,0,1c-0.667,0-1.333,0-2,0
				C35,30.666,35,30.333,35,30z"/>
			<path fill="#A41000" d="M37,30c0.333,0,0.667,0,1,0c0,0.333,0,0.667,0,1c-0.333,0-0.667,0-1,0C37,30.666,37,30.333,37,30z"/>
			<path fill="#CDCDD5" d="M40,30c0,0.333,0,0.667,0,1s0,0.667,0,1c-0.333,0-0.667,0-1,0c0-0.667,0-1.333,0-2
				C39.333,30,39.667,30,40,30z"/>
			<path fill="#FFFFFF" d="M40,30c0.333,0,0.667,0,1,0c0,0.333,0,0.667,0,1c-0.333,0-0.667,0-1,0C40,30.666,40,30.333,40,30z"/>
			<path fill="#838B94" d="M41,30c0.333,0,0.667,0,1,0c0,0.167,0,0.333,0,0.5s0,0.333,0,0.5c-0.333,0-0.667,0-1,0
				C41,30.666,41,30.333,41,30z"/>
			<path fill="#4E85FF" d="M45,30c0.667,0,1.333,0,2,0c0,0.333,0,0.667,0,1c-0.667,0-1.333,0-2,0C45,30.666,45,30.333,45,30z"/>
			<path fill="#08316A" d="M47,30c0.667,0,1.333,0,2,0c0,0.333,0,0.667,0,1c-0.667,0-1.333,0-2,0C47,30.666,47,30.333,47,30z"/>
			<path fill="#621000" d="M54,30c0,0.167,0,0.333,0,0.5s0,0.333,0,0.5c-0.333,0-0.667,0-1,0c0-0.167,0-0.333,0-0.5s0-0.333,0-0.5
				C53.333,30,53.667,30,54,30z"/>
			<path fill="#621000" d="M22,31c0,0.333,0,0.667,0,1c-0.333,0-0.667,0-1,0c0-0.333,0-0.667,0-1C21.333,31,21.666,31,22,31z"/>
			<path fill="#A41000" d="M22,31c0.333,0,0.667,0,1,0c0,0.333,0,0.667,0,1s0,0.667,0,1c-0.333,0-0.667,0-1,0c0,0.167,0,0.333,0,0.5
				s0,0.333,0,0.5c-0.333,0-0.667,0-1,0c0,0.333,0,0.667,0,1s0,0.667,0,1c-0.333,0-0.667,0-1,0c0,0.333,0,0.667,0,1s0,0.667,0,1
				c-0.333,0-0.667,0-1,0c0,0.667,0,1.333,0,2c0,0.333,0,0.667,0,1c0,1,0,2,0,3c0,0.667,0,1.333,0,2c0.167,0,0.333,0,0.5,0
				s0.333,0,0.5,0c0,0.333,0,0.667,0,1c0.167,0,0.333,0,0.5,0s0.333,0,0.5,0c0,0.333,0,0.667,0,1c-0.333,0-0.667,0-1,0
				c-0.667,0-1.333,0-2,0c0-0.333,0-0.667,0-1c-0.333,0-0.667,0-1,0s-0.667,0-1,0c0-0.333,0-0.667,0-1c-0.167,0-0.333,0-0.5,0
				s-0.333,0-0.5,0c0-1,0-2,0-3c0-0.333,0-0.667,0-1c0.333,0,0.667,0,1,0c0-0.333,0-0.667,0-1c0-0.667,0-1.333,0-2
				c0.333,0,0.667,0,1,0c0-0.333,0-0.667,0-1s0-0.667,0-1c0.333,0,0.667,0,1,0c0-0.333,0-0.667,0-1s0-0.667,0-1c0.333,0,0.667,0,1,0
				c0-0.167,0-0.333,0-0.5s0-0.333,0-0.5c0.333,0,0.667,0,1,0c0-0.167,0-0.333,0-0.5s0-0.333,0-0.5c0.333,0,0.667,0,1,0
				c0-0.333,0-0.667,0-1c0.333,0,0.667,0,1,0C22,31.666,22,31.333,22,31z"/>
			<path fill="#838B94" d="M24,31c0.333,0,0.667,0,1,0c0,0.333,0,0.667,0,1c-0.333,0-0.667,0-1,0C24,31.666,24,31.333,24,31z"/>
			<path fill="#FFFFFF" d="M25,31c0.333,0,0.667,0,1,0c0,0.333,0,0.667,0,1c-0.333,0-0.667,0-1,0C25,31.666,25,31.333,25,31z"/>
			<path fill="#838B94" d="M29,31c0.333,0,0.667,0,1,0c0,0.333,0,0.667,0,1c-0.333,0-0.667,0-1,0c0,0.667,0,1.333,0,2
				c-0.333,0-0.667,0-1,0c0-0.333,0-0.667,0-1c0-0.667,0-1.333,0-2C28.333,31,28.666,31,29,31z"/>
			<path fill="#621000" d="M30,31c0.333,0,0.667,0,1,0c0,0.333,0,0.667,0,1c0.333,0,0.667,0,1,0c0,0.333,0,0.667,0,1
				c0.333,0,0.667,0,1,0s0.667,0,1,0c0.667,0,1.333,0,2,0c0,0.333,0,0.667,0,1c-1,0-2,0-3,0c-0.333,0-0.667,0-1,0s-0.667,0-1,0
				c0-0.333,0-0.667,0-1c-0.333,0-0.667,0-1,0c0-0.333,0-0.667,0-1C30,31.666,30,31.333,30,31z"/>
			<path fill="#A41000" d="M31,31c0.333,0,0.667,0,1,0s0.667,0,1,0c0,0.667,0,1.333,0,2c-0.333,0-0.667,0-1,0c0-0.333,0-0.667,0-1
				c-0.333,0-0.667,0-1,0C31,31.666,31,31.333,31,31z"/>
			<path fill="#101010" d="M33,31c0.667,0,1.333,0,2,0c0,0.333,0,0.667,0,1c-0.333,0-0.667,0-1,0c0,0.167,0,0.333,0,0.5
				s0,0.333,0,0.5c-0.333,0-0.667,0-1,0C33,32.333,33,31.666,33,31z"/>
			<path fill="#A41000" d="M35,31c0.667,0,1.333,0,2,0c0,0.333,0,0.667,0,1c-0.333,0-0.667,0-1,0c0,0.333,0,0.667,0,1
				c-0.667,0-1.333,0-2,0c0-0.167,0-0.333,0-0.5s0-0.333,0-0.5c0.333,0,0.667,0,1,0C35,31.666,35,31.333,35,31z"/>
			<path fill="#621000" d="M37,31c0.333,0,0.667,0,1,0c0,0.333,0,0.667,0,1c-0.333,0-0.667,0-1,0C37,31.666,37,31.333,37,31z"/>
			<path fill="#838B94" d="M40,31c0.333,0,0.667,0,1,0c0,0.667,0,1.333,0,2c0,0.333,0,0.667,0,1c-0.333,0-0.667,0-1,0
				c0-0.333,0-0.667,0-1c-0.167,0-0.333,0-0.5,0s-0.333,0-0.5,0c0-0.333,0-0.667,0-1c0.333,0,0.667,0,1,0C40,31.666,40,31.333,40,31
				z"/>
			<path fill="#4E85FF" d="M47,31c0.667,0,1.333,0,2,0c0,0.333,0,0.667,0,1c-0.667,0-1.333,0-2,0C47,31.666,47,31.333,47,31z"/>
			<path fill="#08316A" d="M49,31c0.667,0,1.333,0,2,0c0,0.333,0,0.667,0,1c-0.667,0-1.333,0-2,0C49,31.666,49,31.333,49,31z"/>
			<path fill="#621000" d="M53,31c0,0.333,0,0.667,0,1c-0.333,0-0.667,0-1,0c0-0.333,0-0.667,0-1C52.333,31,52.667,31,53,31z"/>
			<path fill="#101010" d="M60,31c0,0.333,0,0.667,0,1c-0.333,0-0.667,0-1,0c0-0.167,0-0.333,0-0.5s0-0.333,0-0.5
				C59.333,31,59.667,31,60,31z"/>
			<path fill="#621000" d="M21,32c0,0.333,0,0.667,0,1c-0.333,0-0.667,0-1,0c0-0.333,0-0.667,0-1C20.333,32,20.666,32,21,32z"/>
			<path fill="#101010" d="M23,32c0.333,0,0.667,0,1,0c0,0.333,0,0.667,0,1c-0.333,0-0.667,0-1,0C23,32.667,23,32.333,23,32z"/>
			<path fill="#08316A" d="M24,32c0.333,0,0.667,0,1,0c0,0.333,0,0.667,0,1c-0.333,0-0.667,0-1,0C24,32.667,24,32.333,24,32z"/>
			<path fill="#838B94" d="M25,32c0.333,0,0.667,0,1,0c0,0.333,0,0.667,0,1c-0.333,0-0.667,0-1,0C25,32.667,25,32.333,25,32z"/>
			<path fill="#FFFFFF" d="M26,32c0.167,0,0.333,0,0.5,0s0.333,0,0.5,0c0,0.333,0,0.667,0,1c-0.333,0-0.667,0-1,0
				C26,32.667,26,32.333,26,32z"/>
			<path fill="#08316A" d="M30,32c0,0.333,0,0.667,0,1s0,0.667,0,1c-0.333,0-0.667,0-1,0c0-0.667,0-1.333,0-2
				C29.333,32,29.666,32,30,32z"/>
			<path fill="#621000" d="M37,32c0,0.333,0,0.667,0,1c-0.333,0-0.667,0-1,0c0-0.333,0-0.667,0-1C36.333,32,36.667,32,37,32z"/>
			<path fill="#3D4AF7" d="M37,32c0.333,0,0.667,0,1,0c0,0.333,0,0.667,0,1s0,0.667,0,1c-0.333,0-0.667,0-1,0c0,0.667,0,1.333,0,2
				c-0.333,0-0.667,0-1,0c0,0.167,0,0.333,0,0.5s0,0.333,0,0.5c-1.333,0-2.667,0-4,0c-0.667,0-1.333,0-2,0c0-0.333,0-0.667,0-1
				c1.333,0,2.667,0,4,0c0-0.167,0-0.333,0-0.5s0-0.333,0-0.5c0.667,0,1.333,0,2,0c0-0.167,0-0.333,0-0.5s0-0.333,0-0.5
				c0-0.333,0-0.667,0-1c0.333,0,0.667,0,1,0C37,32.667,37,32.333,37,32z"/>
			<path fill="#CDCDD5" d="M38,32c0.333,0,0.667,0,1,0c0,0.333,0,0.667,0,1c-0.333,0-0.667,0-1,0C38,32.667,38,32.333,38,32z"/>
			<path fill="#08316A" d="M43,33c-0.333,0-0.667,0-1,0c0-0.167,0-0.333,0-0.5s0-0.333,0-0.5c0.333,0,0.667,0,1,0
				C43,32.333,43,32.667,43,33z"/>
			<path fill="#4E85FF" d="M49,32c0.667,0,1.333,0,2,0c0,0.333,0,0.667,0,1c-0.667,0-1.333,0-2,0C49,32.667,49,32.333,49,32z"/>
			<path fill="#08316A" d="M51,32c0.333,0,0.667,0,1,0s0.667,0,1,0c0,0.333,0,0.667,0,1c-0.333,0-0.667,0-1,0s-0.667,0-1,0
				C51,32.667,51,32.333,51,32z"/>
			<path fill="#101010" d="M59,32c0,0.667,0,1.333,0,2c-0.333,0-0.667,0-1,0c0-0.667,0-1.333,0-2C58.333,32,58.667,32,59,32z"/>
			<path fill="#621000" d="M20,33c0,0.167,0,0.333,0,0.5s0,0.333,0,0.5c-0.333,0-0.667,0-1,0c0-0.333,0-0.667,0-1
				C19.333,33,19.666,33,20,33z"/>
			<path fill="#101010" d="M23,33c0,0.333,0,0.667,0,1c-0.333,0-0.667,0-1,0c0-0.167,0-0.333,0-0.5s0-0.333,0-0.5
				C22.333,33,22.666,33,23,33z"/>
			<path fill="#FFFFFF" d="M23,33c0.333,0,0.667,0,1,0s0.667,0,1,0c0,0.333,0,0.667,0,1c0.333,0,0.667,0,1,0s0.667,0,1,0
				c0,0.333,0,0.667,0,1c0.667,0,1.333,0,2,0c0,0.333,0,0.667,0,1s0,0.667,0,1c0.167,0,0.333,0,0.5,0s0.333,0,0.5,0
				c0,0.333,0,0.667,0,1c-0.667,0-1.333,0-2,0c0-0.333,0-0.667,0-1c-0.667,0-1.333,0-2,0c-0.333,0-0.667,0-1,0
				c0,0.167,0,0.333,0,0.5s0,0.333,0,0.5c-1.333,0-2.667,0-4,0c0-0.333,0-0.667,0-1s0-0.667,0-1c0.333,0,0.667,0,1,0
				c0-0.333,0-0.667,0-1s0-0.667,0-1c0.333,0,0.667,0,1,0C23,33.667,23,33.333,23,33z"/>
			<path fill="#08316A" d="M25,33c0.333,0,0.667,0,1,0c0,0.333,0,0.667,0,1c-0.333,0-0.667,0-1,0C25,33.667,25,33.333,25,33z"/>
			<path fill="#101010" d="M26,33c0.333,0,0.667,0,1,0c0,0.333,0,0.667,0,1c-0.333,0-0.667,0-1,0C26,33.667,26,33.333,26,33z"/>
			<path fill="#FFFFFF" d="M27,33c0.333,0,0.667,0,1,0c0,0.333,0,0.667,0,1c-0.333,0-0.667,0-1,0C27,33.667,27,33.333,27,33z"/>
			<path fill="#3D4AF7" d="M30,33c0.333,0,0.667,0,1,0c0,0.333,0,0.667,0,1c-0.333,0-0.667,0-1,0C30,33.667,30,33.333,30,33z"/>
			<path fill="#838B94" d="M38,33c0.333,0,0.667,0,1,0c0,0.333,0,0.667,0,1c0.333,0,0.667,0,1,0c0,0.333,0,0.667,0,1
				c-0.333,0-0.667,0-1,0s-0.667,0-1,0c0-0.333,0-0.667,0-1S38,33.333,38,33z"/>
			<path fill="#CDCDD5" d="M39,33c0.167,0,0.333,0,0.5,0s0.333,0,0.5,0c0,0.333,0,0.667,0,1c-0.333,0-0.667,0-1,0
				C39,33.667,39,33.333,39,33z"/>
			<path fill="#08316A" d="M41,33c0.333,0,0.667,0,1,0c0,0.333,0,0.667,0,1c-0.333,0-0.667,0-1,0C41,33.667,41,33.333,41,33z"/>
			<path fill="#101010" d="M42,33c0.333,0,0.667,0,1,0c0.667,0,1.333,0,2,0c0,0.333,0,0.667,0,1c-1,0-2,0-3,0
				C42,33.667,42,33.333,42,33z"/>
			<path fill="#4E85FF" d="M52,33c0.333,0,0.667,0,1,0c0,0.333,0,0.667,0,1c-0.333,0-0.667,0-1,0C52,33.667,52,33.333,52,33z"/>
			<path fill="#838B94" d="M53,33c0.667,0,1.333,0,2,0c0,0.333,0,0.667,0,1c-0.667,0-1.333,0-2,0C53,33.667,53,33.333,53,33z"/>
			<path fill="#621000" d="M19,34c0,0.167,0,0.333,0,0.5s0,0.333,0,0.5c-0.333,0-0.667,0-1,0c0-0.333,0-0.667,0-1
				C18.333,34,18.666,34,19,34z"/>
			<path fill="#621000" d="M22,34c0,0.333,0,0.667,0,1c-0.333,0-0.667,0-1,0c0-0.333,0-0.667,0-1C21.333,34,21.666,34,22,34z"/>
			<path fill="#101010" d="M27,34c0.333,0,0.667,0,1,0s0.667,0,1,0c0,0.333,0,0.667,0,1c-0.667,0-1.333,0-2,0
				C27,34.667,27,34.333,27,34z"/>
			<path fill="#3D4AF7" d="M29,34c0.333,0,0.667,0,1,0c0,0.667,0,1.333,0,2c-0.333,0-0.667,0-1,0c0-0.333,0-0.667,0-1
				S29,34.333,29,34z"/>
			<path fill="#4E85FF" d="M30,34c0.333,0,0.667,0,1,0s0.667,0,1,0c0,0.333,0,0.667,0,1c0.333,0,0.667,0,1,0c0-0.167,0-0.333,0-0.5
				s0-0.333,0-0.5c1,0,2,0,3,0c0,0.167,0,0.333,0,0.5s0,0.333,0,0.5c-0.667,0-1.333,0-2,0c0,0.167,0,0.333,0,0.5s0,0.333,0,0.5
				c-1.333,0-2.667,0-4,0C30,35.333,30,34.667,30,34z"/>
			<path fill="#FFFFFF" d="M32,34c0.333,0,0.667,0,1,0c0,0.167,0,0.333,0,0.5s0,0.333,0,0.5c-0.333,0-0.667,0-1,0
				C32,34.667,32,34.333,32,34z"/>
			<path fill="#08316A" d="M38,34c0,0.333,0,0.667,0,1s0,0.667,0,1c-0.333,0-0.667,0-1,0c0-0.667,0-1.333,0-2
				C37.333,34,37.667,34,38,34z"/>
			<path fill="#101010" d="M40,34c0.333,0,0.667,0,1,0c0,0.333,0,0.667,0,1c-0.333,0-0.667,0-1,0C40,34.667,40,34.333,40,34z"/>
			<path fill="#101010" d="M45,34c0.667,0,1.333,0,2,0c0,0.333,0,0.667,0,1c-0.667,0-1.333,0-2,0C45,34.667,45,34.333,45,34z"/>
			<path fill="#08316A" d="M47,34c0.333,0,0.667,0,1,0c0,0.333,0,0.667,0,1c-0.333,0-0.667,0-1,0C47,34.667,47,34.333,47,34z"/>
			<path fill="#CDCDD5" d="M52,34c0.333,0,0.667,0,1,0c0,0.333,0,0.667,0,1c-0.333,0-0.667,0-1,0C52,34.667,52,34.333,52,34z"/>
			<path fill="#FFFFFF" d="M53,34c0.667,0,1.333,0,2,0c0,0.667,0,1.333,0,2c-1,0-2,0-3,0c0-0.333,0-0.667,0-1c0.333,0,0.667,0,1,0
				C53,34.667,53,34.333,53,34z"/>
			<path fill="#838B94" d="M55,34c0.333,0,0.667,0,1,0c0,0.333,0,0.667,0,1s0,0.667,0,1s0,0.667,0,1c-0.333,0-0.667,0-1,0
				c0-0.333,0-0.667,0-1C55,35.333,55,34.667,55,34z"/>
			<path fill="#101010" d="M58,34c0,0.333,0,0.667,0,1c-0.333,0-0.667,0-1,0c0-0.167,0-0.333,0-0.5s0-0.333,0-0.5
				C57.333,34,57.667,34,58,34z"/>
			<path fill="#885030" d="M58,34c0.333,0,0.667,0,1,0s0.667,0,1,0c0,0.333,0,0.667,0,1c-0.333,0-0.667,0-1,0s-0.667,0-1,0
				C58,34.667,58,34.333,58,34z"/>
			<path fill="#101010" d="M18,35c0,0.333,0,0.667,0,1c-0.333,0-0.667,0-1,0c0-0.333,0-0.667,0-1C17.333,35,17.666,35,18,35z"/>
			<path fill="#101010" d="M21,35c0.333,0,0.667,0,1,0c0,0.333,0,0.667,0,1c-0.333,0-0.667,0-1,0C21,35.667,21,35.333,21,35z"/>
			<path fill="#101010" d="M38,35c0.333,0,0.667,0,1,0c0,0.167,0,0.333,0,0.5s0,0.333,0,0.5c-0.333,0-0.667,0-1,0
				C38,35.667,38,35.333,38,35z"/>
			<path fill="#101010" d="M48,35c0.667,0,1.333,0,2,0c0,0.333,0,0.667,0,1c-0.333,0-0.667,0-1,0s-0.667,0-1,0
				C48,35.667,48,35.333,48,35z"/>
			<path fill="#CDCDD5" d="M52,35c0,0.333,0,0.667,0,1c1,0,2,0,3,0c0,0.333,0,0.667,0,1c-0.667,0-1.333,0-2,0c0,0.167,0,0.333,0,0.5
				s0,0.333,0,0.5c-0.333,0-0.667,0-1,0c0-0.333,0-0.667,0-1c-0.333,0-0.667,0-1,0c0-0.333,0-0.667,0-1c0-0.167,0-0.333,0-0.5
				s0-0.333,0-0.5C51.333,35,51.667,35,52,35z"/>
			<path fill="#885030" d="M56,35c0.333,0,0.667,0,1,0s0.667,0,1,0c0,0.333,0,0.667,0,1c-0.667,0-1.333,0-2,0
				C56,35.667,56,35.333,56,35z"/>
			<path fill="#E8B090" d="M58,35c0.333,0,0.667,0,1,0c0,0.333,0,0.667,0,1c-0.333,0-0.667,0-1,0C58,35.667,58,35.333,58,35z"/>
			<path fill="#101010" d="M59,35c0.333,0,0.667,0,1,0c0,0.667,0,1.333,0,2c-0.333,0-0.667,0-1,0c0-0.333,0-0.667,0-1
				S59,35.333,59,35z"/>
			<path fill="#3D4AF7" d="M9,37c-0.333,0-0.667,0-1,0c0-0.333,0-0.667,0-1c0.333,0,0.667,0,1,0C9,36.333,9,36.667,9,37z"/>
			<path fill="#101010" d="M12,37c0-0.333,0-0.667,0-1c0.333,0,0.667,0,1,0c0,0.333,0,0.667,0,1C12.666,37,12.333,37,12,37z"/>
			<path fill="#621000" d="M17,36c0.333,0,0.667,0,1,0c0,0.333,0,0.667,0,1c-0.333,0-0.667,0-1,0C17,36.667,17,36.333,17,36z"/>
			<path fill="#621000" d="M21,36c0,0.333,0,0.667,0,1c-0.333,0-0.667,0-1,0c0-0.333,0-0.667,0-1C20.333,36,20.666,36,21,36z"/>
			<path fill="#101010" d="M29,36c0.333,0,0.667,0,1,0c0,0.333,0,0.667,0,1c-0.167,0-0.333,0-0.5,0s-0.333,0-0.5,0
				C29,36.667,29,36.333,29,36z"/>
			<path fill="#08316A" d="M37,36c0,0.333,0,0.667,0,1c-0.333,0-0.667,0-1,0c0-0.167,0-0.333,0-0.5s0-0.333,0-0.5
				C36.333,36,36.667,36,37,36z"/>
			<path fill="#838B94" d="M37,36c0.333,0,0.667,0,1,0c0,0.667,0,1.333,0,2c-0.333,0-0.667,0-1,0c0-0.333,0-0.667,0-1
				S37,36.333,37,36z"/>
			<path fill="#621000" d="M48,36c0.333,0,0.667,0,1,0c0,0.333,0,0.667,0,1c-0.333,0-0.667,0-1,0C48,36.667,48,36.333,48,36z"/>
			<path fill="#A41000" d="M49,36c0.333,0,0.667,0,1,0c0,0.333,0,0.667,0,1c0.333,0,0.667,0,1,0c0,0.333,0,0.667,0,1
				c0.333,0,0.667,0,1,0c0,0.333,0,0.667,0,1c0.333,0,0.667,0,1,0c0,0.333,0,0.667,0,1c0.333,0,0.667,0,1,0c0,0.333,0,0.667,0,1
				c0.667,0,1.333,0,2,0c0,0.667,0,1.333,0,2c0.167,0,0.333,0,0.5,0s0.333,0,0.5,0c0,0.5,0,1,0,1.5c0,0.25,0,0.5,0,0.75
				c0,0.125,0,0.25,0,0.375s0,0.25,0,0.375c0.167,0,0.333,0,0.5,0s0.333,0,0.5,0c0,0.333,0,0.667,0,1c0.167,0,0.333,0,0.5,0
				s0.333,0,0.5,0c0,0.333,0,0.667,0,1c-0.125,0-0.25,0-0.375,0c-0.083,0-0.167,0-0.25,0c-0.125,0-0.25,0-0.375,0
				c-0.083,0-0.167,0-0.25,0c-0.125,0-0.25,0-0.375,0c-0.083,0-0.167,0-0.25,0c-0.125,0-0.25,0-0.375,0c-0.083,0-0.167,0-0.25,0
				c-0.125,0-0.25,0-0.375,0c-0.083,0-0.167,0-0.25,0c-0.125,0-0.25,0-0.375,0c-0.083,0-0.167,0-0.25,0c-0.125,0-0.25,0-0.375,0
				c-0.083,0-0.167,0-0.25,0c-0.125,0-0.25,0-0.375,0c-0.083,0-0.167,0-0.25,0c-0.125,0-0.25,0-0.375,0c-0.083,0-0.167,0-0.25,0
				c-0.125,0-0.25,0-0.375,0c-0.083,0-0.167,0-0.25,0c-0.125,0-0.25,0-0.375,0c-0.083,0-0.167,0-0.25,0c-0.125,0-0.25,0-0.375,0
				c-0.083,0-0.167,0-0.25,0c-0.833,0-1.667,0-2.5,0c0-0.333,0-0.667,0-1c-0.167,0-0.333,0-0.5,0s-0.333,0-0.5,0
				c0-0.333,0-0.667,0-1c-0.333,0-0.667,0-1,0c0-0.333,0-0.667,0-1c0-1.667,0-3.333,0-5c0.333,0,0.667,0,1,0c0-1,0-2,0-3
				c0.333,0,0.667,0,1,0C49,36.667,49,36.333,49,36z"/>
			<path fill="#101010" d="M50,36c0.333,0,0.667,0,1,0c0,0.333,0,0.667,0,1c-0.333,0-0.667,0-1,0C50,36.667,50,36.333,50,36z"/>
			<path fill="#E8B090" d="M56,36c0.667,0,1.333,0,2,0c0,0.333,0,0.667,0,1c-0.333,0-0.667,0-1,0c0,0.333,0,0.667,0,1
				c-0.667,0-1.333,0-2,0c0-0.333,0-0.667,0-1c0.333,0,0.667,0,1,0C56,36.667,56,36.333,56,36z"/>
			<path fill="#F8D8C8" d="M58,36c0.333,0,0.667,0,1,0c0,0.333,0,0.667,0,1c-0.333,0-0.667,0-1,0C58,36.667,58,36.333,58,36z"/>
			<path fill="#08316A" d="M8,37c0.333,0,0.667,0,1,0c0,0.333,0,0.667,0,1c-0.333,0-0.667,0-1,0C8,37.667,8,37.333,8,37z"/>
			<path fill="#3D4AF7" d="M9,37c0.333,0,0.667,0,1,0c0,0.333,0,0.667,0,1c-0.333,0-0.667,0-1,0C9,37.667,9,37.333,9,37z"/>
			<path fill="#101010" d="M10,37c0.667,0,1.333,0,2,0c0,0.667,0,1.333,0,2c-0.333,0-0.667,0-1,0c0-0.333,0-0.667,0-1
				c-0.167,0-0.333,0-0.5,0s-0.333,0-0.5,0C10,37.667,10,37.333,10,37z"/>
			<path fill="#101010" d="M17,37c0,0.333,0,0.667,0,1c-0.333,0-0.667,0-1,0c0-0.333,0-0.667,0-1C16.333,37,16.666,37,17,37z"/>
			<path fill="#101010" d="M20,37c0.333,0,0.667,0,1,0c0,0.333,0,0.667,0,1c-0.333,0-0.667,0-1,0C20,37.667,20,37.333,20,37z"/>
			<path fill="#101010" d="M26,37c0,0.333,0,0.667,0,1c-0.333,0-0.667,0-1,0c0-0.167,0-0.333,0-0.5s0-0.333,0-0.5
				C25.333,37,25.666,37,26,37z"/>
			<path fill="#838B94" d="M26,37c0.667,0,1.333,0,2,0c0,0.333,0,0.667,0,1c-0.667,0-1.333,0-2,0C26,37.667,26,37.333,26,37z"/>
			<path fill="#101010" d="M30,37c0.667,0,1.333,0,2,0c0,0.333,0,0.667,0,1s0,0.667,0,1c-0.333,0-0.667,0-1,0c0-0.333,0-0.667,0-1
				c-0.167,0-0.333,0-0.5,0s-0.333,0-0.5,0C30,37.667,30,37.333,30,37z"/>
			<path fill="#08316A" d="M32,37c1.333,0,2.667,0,4,0c0,0.333,0,0.667,0,1c-0.333,0-0.667,0-1,0c-0.667,0-1.333,0-2,0
				c-0.333,0-0.667,0-1,0C32,37.667,32,37.333,32,37z"/>
			<path fill="#CDCDD5" d="M36,37c0.333,0,0.667,0,1,0c0,0.333,0,0.667,0,1c-0.333,0-0.667,0-1,0C36,37.667,36,37.333,36,37z"/>
			<path fill="#621000" d="M48,37c0,1,0,2,0,3c-0.333,0-0.667,0-1,0c0-1,0-2,0-3C47.333,37,47.667,37,48,37z"/>
			<path fill="#101010" d="M51,37c0.333,0,0.667,0,1,0c0,0.333,0,0.667,0,1c-0.333,0-0.667,0-1,0C51,37.667,51,37.333,51,37z"/>
			<path fill="#838B94" d="M55,37c0,0.333,0,0.667,0,1c-0.333,0-0.667,0-1,0s-0.667,0-1,0c0-0.167,0-0.333,0-0.5s0-0.333,0-0.5
				C53.667,37,54.333,37,55,37z"/>
			<path fill="#101010" d="M58,37c0.333,0,0.667,0,1,0c0,0.333,0,0.667,0,1c-0.333,0-0.667,0-1,0s-0.667,0-1,0c0-0.333,0-0.667,0-1
				C57.333,37,57.667,37,58,37z"/>
			<path fill="#CDCDD5" d="M8,38c0.333,0,0.667,0,1,0c0,0.333,0,0.667,0,1c-0.333,0-0.667,0-1,0C8,38.667,8,38.333,8,38z"/>
			<path fill="#08316A" d="M9,38c0.333,0,0.667,0,1,0c0,0.667,0,1.333,0,2c-0.333,0-0.667,0-1,0c0-0.333,0-0.667,0-1S9,38.333,9,38z
				"/>
			<path fill="#3D4AF7" d="M10,38c0.167,0,0.333,0,0.5,0s0.333,0,0.5,0c0,0.333,0,0.667,0,1s0,0.667,0,1c-0.333,0-0.667,0-1,0
				C10,39.333,10,38.667,10,38z"/>
			<path fill="#621000" d="M16,38c0.333,0,0.667,0,1,0c0,0.333,0,0.667,0,1c-0.333,0-0.667,0-1,0C16,38.667,16,38.333,16,38z"/>
			<path fill="#621000" d="M20,38c0,0.333,0,0.667,0,1s0,0.667,0,1c-0.333,0-0.667,0-1,0c0-0.667,0-1.333,0-2
				C19.333,38,19.666,38,20,38z"/>
			<path fill="#FFFFFF" d="M20,38c0.333,0,0.667,0,1,0c0,0.333,0,0.667,0,1c-0.333,0-0.667,0-1,0C20,38.667,20,38.333,20,38z"/>
			<path fill="#101010" d="M21,38c1.333,0,2.667,0,4,0c0,0.333,0,0.667,0,1c-0.667,0-1.333,0-2,0c-0.333,0-0.667,0-1,0s-0.667,0-1,0
				C21,38.667,21,38.333,21,38z"/>
			<path fill="#838B94" d="M25,38c0.333,0,0.667,0,1,0c0,0.333,0,0.667,0,1c0.333,0,0.667,0,1,0c0,0.333,0,0.667,0,1
				c-0.333,0-0.667,0-1,0c0,0.667,0,1.333,0,2c-0.333,0-0.667,0-1,0c0-1,0-2,0-3C25,38.667,25,38.333,25,38z"/>
			<path fill="#FFFFFF" d="M26,38c0.667,0,1.333,0,2,0c0,0.333,0,0.667,0,1c0.5,0,1,0,1.5,0s1,0,1.5,0c0,0.333,0,0.667,0,1
				c-0.667,0-1.333,0-2,0c0,0.125,0,0.25,0,0.375s0,0.25,0,0.375c0,0.083,0,0.167,0,0.25c0.667,0,1.333,0,2,0c0,0.667,0,1.333,0,2
				c-0.667,0-1.333,0-2,0c0-0.333,0-0.667,0-1c-1,0-2,0-3,0c0-0.667,0-1.333,0-2c0.333,0,0.667,0,1,0c0-0.333,0-0.667,0-1
				c-0.333,0-0.667,0-1,0C26,38.667,26,38.333,26,38z"/>
			<path fill="#838B94" d="M28,38c0.667,0,1.333,0,2,0c0.167,0,0.333,0,0.5,0s0.333,0,0.5,0c0,0.333,0,0.667,0,1c-0.5,0-1,0-1.5,0
				s-1,0-1.5,0C28,38.667,28,38.333,28,38z"/>
			<path fill="#CDCDD5" d="M32,38c0.333,0,0.667,0,1,0c0,0.333,0,0.667,0,1c-0.333,0-0.667,0-1,0C32,38.667,32,38.333,32,38z"/>
			<path fill="#FFFFFF" d="M33,38c0.667,0,1.333,0,2,0c0,0.333,0,0.667,0,1c-0.333,0-0.667,0-1,0s-0.667,0-1,0
				C33,38.667,33,38.333,33,38z"/>
			<path fill="#CDCDD5" d="M35,38c0.333,0,0.667,0,1,0c0,0.333,0,0.667,0,1c-0.333,0-0.667,0-1,0C35,38.667,35,38.333,35,38z"/>
			<path fill="#838B94" d="M36,38c0.333,0,0.667,0,1,0c0,0.333,0,0.667,0,1c-0.333,0-0.667,0-1,0C36,38.667,36,38.333,36,38z"/>
			<path fill="#FFFFFF" d="M37,38c0.333,0,0.667,0,1,0c0,0.333,0,0.667,0,1c-0.333,0-0.667,0-1,0C37,38.667,37,38.333,37,38z"/>
			<path fill="#838B94" d="M38,38c0.333,0,0.667,0,1,0c0,0.333,0,0.667,0,1c-0.333,0-0.667,0-1,0C38,38.667,38,38.333,38,38z"/>
			<path fill="#101010" d="M52,38c0.333,0,0.667,0,1,0c0,0.333,0,0.667,0,1c-0.333,0-0.667,0-1,0C52,38.667,52,38.333,52,38z"/>
			<path fill="#885030" d="M53,38c0.333,0,0.667,0,1,0c0,0.333,0,0.667,0,1s0,0.667,0,1c-0.333,0-0.667,0-1,0c0-0.333,0-0.667,0-1
				S53,38.333,53,38z"/>
			<path fill="#E8B090" d="M54,38c0.333,0,0.667,0,1,0c0,0.333,0,0.667,0,1c-0.333,0-0.667,0-1,0C54,38.667,54,38.333,54,38z"/>
			<path fill="#885030" d="M55,38c0.667,0,1.333,0,2,0c0,0.333,0,0.667,0,1c-0.333,0-0.667,0-1,0c0,0.167,0,0.333,0,0.5
				s0,0.333,0,0.5c-0.333,0-0.667,0-1,0c0-0.333,0-0.667,0-1S55,38.333,55,38z"/>
			<path fill="#E8B090" d="M57,38c0.333,0,0.667,0,1,0c0,0.333,0,0.667,0,1c-0.333,0-0.667,0-1,0C57,38.667,57,38.333,57,38z"/>
			<path fill="#885030" d="M58,38c0.333,0,0.667,0,1,0c0,0.333,0,0.667,0,1c-0.333,0-0.667,0-1,0C58,38.667,58,38.333,58,38z"/>
			<path fill="#CDCDD5" d="M8,39c0,0.333,0,0.667,0,1c-0.333,0-0.667,0-1,0c0-0.333,0-0.667,0-1C7.333,39,7.666,39,8,39z"/>
			<path fill="#838B94" d="M8,39c0.333,0,0.667,0,1,0c0,0.333,0,0.667,0,1s0,0.667,0,1c-0.667,0-1.333,0-2,0c0-0.333,0-0.667,0-1
				c0.333,0,0.667,0,1,0C8,39.667,8,39.333,8,39z"/>
			<path fill="#101010" d="M16,39c0,0.667,0,1.333,0,2c-0.333,0-0.667,0-1,0c0-0.667,0-1.333,0-2C15.333,39,15.666,39,16,39z"/>
			<path fill="#101010" d="M20,39c0.333,0,0.667,0,1,0c0,0.333,0,0.667,0,1c-0.333,0-0.667,0-1,0C20,39.667,20,39.333,20,39z"/>
			<path fill="#CDCDD5" d="M21,39c0.333,0,0.667,0,1,0c0,0.333,0,0.667,0,1c-0.333,0-0.667,0-1,0C21,39.667,21,39.333,21,39z"/>
			<path fill="#08316A" d="M22,39c0.333,0,0.667,0,1,0c0,0.333,0,0.667,0,1c-0.333,0-0.667,0-1,0C22,39.667,22,39.333,22,39z"/>
			<path fill="#4E85FF" d="M23,39c0.667,0,1.333,0,2,0c0,1,0,2,0,3c0,0.333,0,0.667,0,1c-0.667,0-1.333,0-2,0c0,0.167,0,0.333,0,0.5
				s0,0.333,0,0.5c-0.333,0-0.667,0-1,0c0-1.333,0-2.667,0-4c0.333,0,0.667,0,1,0C23,39.667,23,39.333,23,39z"/>
			<path fill="#838B94" d="M31,39c0.333,0,0.667,0,1,0c0,0.333,0,0.667,0,1c-0.333,0-0.667,0-1,0C31,39.667,31,39.333,31,39z"/>
			<path fill="#101010" d="M32,39c0.333,0,0.667,0,1,0s0.667,0,1,0c0,0.333,0,0.667,0,1c-0.667,0-1.333,0-2,0
				C32,39.667,32,39.333,32,39z"/>
			<path fill="#838B94" d="M34,39c0.333,0,0.667,0,1,0s0.667,0,1,0c0,0.333,0,0.667,0,1c-0.333,0-0.667,0-1,0s-0.667,0-1,0
				C34,39.667,34,39.333,34,39z"/>
			<path fill="#CDCDD5" d="M36,39c0.333,0,0.667,0,1,0s0.667,0,1,0s0.667,0,1,0c0,0.333,0,0.667,0,1c-0.333,0-0.667,0-1,0
				c0,0.5,0,1,0,1.5s0,1,0,1.5c0.167,0,0.333,0,0.5,0s0.333,0,0.5,0c0,0.333,0,0.667,0,1c0.333,0,0.667,0,1,0c0-0.167,0-0.333,0-0.5
				s0-0.333,0-0.5c0.667,0,1.333,0,2,0c0,0.333,0,0.667,0,1c-0.333,0-0.667,0-1,0c0,0.333,0,0.667,0,1c-0.667,0-1.333,0-2,0
				s-1.333,0-2,0c0-0.667,0-1.333,0-2c-0.167,0-0.333,0-0.5,0s-0.333,0-0.5,0c0-0.667,0-1.333,0-2c0.333,0,0.667,0,1,0
				c0-0.333,0-0.667,0-1c-0.167,0-0.333,0-0.5,0s-0.333,0-0.5,0C36,39.667,36,39.333,36,39z"/>
			<path fill="#838B94" d="M39,39c0.333,0,0.667,0,1,0c0,0.333,0,0.667,0,1c-0.333,0-0.667,0-1,0C39,39.667,39,39.333,39,39z"/>
			<path fill="#101010" d="M40,39c0.333,0,0.667,0,1,0c0,0.333,0,0.667,0,1c-0.333,0-0.667,0-1,0C40,39.667,40,39.333,40,39z"/>
			<path fill="#101010" d="M54,39c0.333,0,0.667,0,1,0c0,0.333,0,0.667,0,1c0.333,0,0.667,0,1,0c0-0.167,0-0.333,0-0.5
				s0-0.333,0-0.5c0.333,0,0.667,0,1,0c0,0.333,0,0.667,0,1c0.333,0,0.667,0,1,0c0,0.333,0,0.667,0,1c-0.333,0-0.667,0-1,0
				c0,0.667,0,1.333,0,2c-0.167,0-0.333,0-0.5,0s-0.333,0-0.5,0c0-0.667,0-1.333,0-2c-0.667,0-1.333,0-2,0c0-0.333,0-0.667,0-1
				S54,39.333,54,39z"/>
			<path fill="#885030" d="M57,39c0.333,0,0.667,0,1,0c0,0.333,0,0.667,0,1c-0.333,0-0.667,0-1,0C57,39.667,57,39.333,57,39z"/>
			<path fill="#E8B090" d="M58,39c0.333,0,0.667,0,1,0c0,0.333,0,0.667,0,1c-0.333,0-0.667,0-1,0C58,39.667,58,39.333,58,39z"/>
			<path fill="#885030" d="M59,39c0.333,0,0.667,0,1,0c0,0.667,0,1.333,0,2c-0.667,0-1.333,0-2,0c0-0.333,0-0.667,0-1
				c0.333,0,0.667,0,1,0C59,39.667,59,39.333,59,39z"/>
			<path fill="#CDCDD5" d="M7,40c0,0.333,0,0.667,0,1c-0.333,0-0.667,0-1,0c0-0.333,0-0.667,0-1C6.333,40,6.666,40,7,40z"/>
			<path fill="#08316A" d="M10,40c0.333,0,0.667,0,1,0c0,0.333,0,0.667,0,1c-0.333,0-0.667,0-1,0C10,40.667,10,40.333,10,40z"/>
			<path fill="#101010" d="M19,40c0.333,0,0.667,0,1,0c0,0.333,0,0.667,0,1c-0.333,0-0.667,0-1,0C19,40.667,19,40.333,19,40z"/>
			<path fill="#FFFFFF" d="M20,40c0.333,0,0.667,0,1,0c0,1.333,0,2.667,0,4c-0.333,0-0.667,0-1,0c0-1,0-2,0-3
				C20,40.667,20,40.333,20,40z"/>
			<path fill="#08316A" d="M21,40c0.333,0,0.667,0,1,0c0,1.333,0,2.667,0,4c0,0.333,0,0.667,0,1c-0.333,0-0.667,0-1,0
				c0-0.333,0-0.667,0-1C21,42.667,21,41.333,21,40z"/>
			<path fill="#CDCDD5" d="M31,40c0.333,0,0.667,0,1,0c0,0.333,0,0.667,0,1c0.333,0,0.667,0,1,0c0,0.333,0,0.667,0,1
				c0.667,0,1.333,0,2,0c0,0.333,0,0.667,0,1c0.167,0,0.333,0,0.5,0s0.333,0,0.5,0c0,1,0,2,0,3c-1,0-2,0-3,0c0-0.333,0-0.667,0-1
				c-0.333,0-0.667,0-1,0c0-0.333,0-0.667,0-1s0-0.667,0-1c-0.167,0-0.333,0-0.5,0s-0.333,0-0.5,0c0-0.667,0-1.333,0-2
				c-0.667,0-1.333,0-2,0c0-0.083,0-0.167,0-0.25c0-0.125,0-0.25,0-0.375s0-0.25,0-0.375C29.666,40,30.333,40,31,40z"/>
			<path fill="#838B94" d="M32,40c0.667,0,1.333,0,2,0c0,0.333,0,0.667,0,1c0.333,0,0.667,0,1,0s0.667,0,1,0c0,0.667,0,1.333,0,2
				c-0.167,0-0.333,0-0.5,0s-0.333,0-0.5,0c0-0.333,0-0.667,0-1c-0.667,0-1.333,0-2,0c0-0.333,0-0.667,0-1c-0.333,0-0.667,0-1,0
				C32,40.667,32,40.333,32,40z"/>
			<path fill="#101010" d="M34,40c0.333,0,0.667,0,1,0c0,0.333,0,0.667,0,1c-0.333,0-0.667,0-1,0C34,40.667,34,40.333,34,40z"/>
			<path fill="#CDCDD5" d="M35,40c0.333,0,0.667,0,1,0c0,0.333,0,0.667,0,1c-0.333,0-0.667,0-1,0C35,40.667,35,40.333,35,40z"/>
			<path fill="#838B94" d="M36,40c0.167,0,0.333,0,0.5,0s0.333,0,0.5,0c0,0.333,0,0.667,0,1c-0.333,0-0.667,0-1,0
				C36,40.667,36,40.333,36,40z"/>
			<path fill="#FFFFFF" d="M39,40c0.333,0,0.667,0,1,0c0,0.333,0,0.667,0,1c0.333,0,0.667,0,1,0s0.667,0,1,0s0.667,0,1,0
				c0,0.333,0,0.667,0,1c-0.333,0-0.667,0-1,0c0,0.333,0,0.667,0,1c-0.667,0-1.333,0-2,0c0,0.167,0,0.333,0,0.5s0,0.333,0,0.5
				c-0.333,0-0.667,0-1,0c0-0.333,0-0.667,0-1c-0.167,0-0.333,0-0.5,0s-0.333,0-0.5,0c0-0.5,0-1,0-1.5s0-1,0-1.5
				C38.333,40,38.667,40,39,40z"/>
			<path fill="#CDCDD5" d="M40,40c0.333,0,0.667,0,1,0c0,0.333,0,0.667,0,1c-0.333,0-0.667,0-1,0C40,40.667,40,40.333,40,40z"/>
			<path fill="#838B94" d="M41,40c0.333,0,0.667,0,1,0c0,0.333,0,0.667,0,1c-0.333,0-0.667,0-1,0C41,40.667,41,40.333,41,40z"/>
			<path fill="#101010" d="M42,40c0.333,0,0.667,0,1,0c0,0.333,0,0.667,0,1c-0.333,0-0.667,0-1,0C42,40.667,42,40.333,42,40z"/>
			<path fill="#621000" d="M47,40c0,1.667,0,3.333,0,5c-0.333,0-0.667,0-1,0c0-0.333,0-0.667,0-1c0-1.333,0-2.667,0-4
				C46.333,40,46.667,40,47,40z"/>
			<path fill="#CDCDD5" d="M5,41c0,0.333,0,0.667,0,1c-0.333,0-0.667,0-1,0c0-0.333,0-0.667,0-1C4.333,41,4.666,41,5,41z"/>
			<path fill="#838B94" d="M5,41c0.333,0,0.667,0,1,0s0.667,0,1,0c0,0.333,0,0.667,0,1c-0.667,0-1.333,0-2,0C5,41.667,5,41.333,5,41
				z"/>
			<path fill="#621000" d="M15,41c0.333,0,0.667,0,1,0c0,0.333,0,0.667,0,1c-0.333,0-0.667,0-1,0C15,41.667,15,41.333,15,41z"/>
			<path fill="#838B94" d="M19,41c0.333,0,0.667,0,1,0c0,1,0,2,0,3c-0.333,0-0.667,0-1,0C19,43,19,42,19,41z"/>
			<path fill="#101010" d="M43,41c0.167,0,0.333,0,0.5,0s0.333,0,0.5,0c0,0.333,0,0.667,0,1c-0.333,0-0.667,0-1,0
				C43,41.667,43,41.333,43,41z"/>
			<path fill="#621000" d="M15,42c0,0.333,0,0.667,0,1c-0.333,0-0.667,0-1,0c0-0.333,0-0.667,0-1C14.333,42,14.666,42,15,42z"/>
			<path fill="#3D4AF7" d="M25,42c0.333,0,0.667,0,1,0c0,0.333,0,0.667,0,1c0.5,0,1,0,1.5,0s1,0,1.5,0c0,0.333,0,0.667,0,1
				c-0.667,0-1.333,0-2,0c0,0.167,0,0.333,0,0.5s0,0.333,0,0.5c-0.333,0-0.667,0-1,0c-1.333,0-2.667,0-4,0c0-0.333,0-0.667,0-1
				c0.333,0,0.667,0,1,0c0-0.167,0-0.333,0-0.5s0-0.333,0-0.5c0.667,0,1.333,0,2,0C25,42.667,25,42.333,25,42z"/>
			<path fill="#838B94" d="M26,42c1,0,2,0,3,0c0,0.333,0,0.667,0,1c-0.5,0-1,0-1.5,0s-1,0-1.5,0C26,42.667,26,42.333,26,42z"/>
			<path fill="#CDCDD5" d="M43,42c0,0.333,0,0.667,0,1c-0.333,0-0.667,0-1,0c0-0.333,0-0.667,0-1C42.333,42,42.667,42,43,42z"/>
			<path fill="#FFFFFF" d="M43,42c0.333,0,0.667,0,1,0c0,0.333,0,0.667,0,1c-0.333,0-0.667,0-1,0C43,42.667,43,42.333,43,42z"/>
			<path fill="#101010" d="M44,42c0.167,0,0.333,0,0.5,0s0.333,0,0.5,0c0,0.667,0,1.333,0,2c-0.333,0-0.667,0-1,0
				c0-0.333,0-0.667,0-1S44,42.333,44,42z"/>
			<path fill="#101010" d="M14,43c0.333,0,0.667,0,1,0c0,1,0,2,0,3c-0.333,0-0.667,0-1,0C14,45,14,44,14,43z"/>
			<path fill="#838B94" d="M29,43c0.667,0,1.333,0,2,0c0,0.333,0,0.667,0,1c-0.333,0-0.667,0-1,0s-0.667,0-1,0
				C29,43.667,29,43.333,29,43z"/>
			<path fill="#FFFFFF" d="M31,43c0.167,0,0.333,0,0.5,0s0.333,0,0.5,0c0,0.333,0,0.667,0,1c-0.333,0-0.667,0-1,0
				C31,43.667,31,43.333,31,43z"/>
			<path fill="#838B94" d="M36,43c0.167,0,0.333,0,0.5,0s0.333,0,0.5,0c0,0.667,0,1.333,0,2c0.667,0,1.333,0,2,0
				c0,0.333,0,0.667,0,1c-0.667,0-1.333,0-2,0c0,0.167,0,0.333,0,0.5s0,0.333,0,0.5c-0.333,0-0.667,0-1,0c0-0.333,0-0.667,0-1
				C36,45,36,44,36,43z"/>
			<path fill="#FFFFFF" d="M42,43c0.333,0,0.667,0,1,0c0,0.333,0,0.667,0,1c-0.333,0-0.667,0-1,0C42,43.667,42,43.333,42,43z"/>
			<path fill="#838B94" d="M43,43c0.333,0,0.667,0,1,0c0,0.333,0,0.667,0,1c-0.333,0-0.667,0-1,0C43,43.667,43,43.333,43,43z"/>
			<path fill="#101010" d="M57,43c0.333,0,0.667,0,1,0c0,1,0,2,0,3c-0.167,0-0.333,0-0.5,0s-0.333,0-0.5,0c0-0.125,0-0.25,0-0.375
				s0-0.25,0-0.375c0-0.25,0-0.5,0-0.75C57,44,57,43.5,57,43z"/>
			<path fill="#101010" d="M19,44c0.333,0,0.667,0,1,0c0,0.667,0,1.333,0,2c-0.167,0-0.333,0-0.5,0s-0.333,0-0.5,0
				C19,45.333,19,44.667,19,44z"/>
			<path fill="#CDCDD5" d="M20,44c0.333,0,0.667,0,1,0c0,0.333,0,0.667,0,1c0.333,0,0.667,0,1,0c0,0.333,0,0.667,0,1
				c-0.333,0-0.667,0-1,0s-0.667,0-1,0C20,45.333,20,44.667,20,44z"/>
			<path fill="#4E85FF" d="M29,44c0.333,0,0.667,0,1,0c0,0.333,0,0.667,0,1c0.333,0,0.667,0,1,0c0,0.333,0,0.667,0,1
				c0,0.667,0,1.333,0,2c-0.333,0-0.667,0-1,0c0,0.167,0,0.333,0,0.5s0,0.333,0,0.5c-0.333,0-0.667,0-1,0c0-0.333,0-0.667,0-1
				c-0.167,0-0.333,0-0.5,0s-0.333,0-0.5,0c0-0.333,0-0.667,0-1c-0.333,0-0.667,0-1,0c0-0.333,0-0.667,0-1c-0.333,0-0.667,0-1,0
				c0-0.333,0-0.667,0-1c0.333,0,0.667,0,1,0c0-0.167,0-0.333,0-0.5s0-0.333,0-0.5C27.666,44,28.333,44,29,44z"/>
			<path fill="#3D4AF7" d="M30,44c0.333,0,0.667,0,1,0c0,0.333,0,0.667,0,1c-0.333,0-0.667,0-1,0C30,44.667,30,44.333,30,44z"/>
			<path fill="#838B94" d="M31,44c0.333,0,0.667,0,1,0c0,0.333,0,0.667,0,1s0,0.667,0,1c-0.333,0-0.667,0-1,0c0-0.333,0-0.667,0-1
				S31,44.333,31,44z"/>
			<path fill="#FFFFFF" d="M42,44c0,0.667,0,1.333,0,2c-1,0-2,0-3,0c0-0.333,0-0.667,0-1c0.667,0,1.333,0,2,0c0-0.333,0-0.667,0-1
				C41.333,44,41.667,44,42,44z"/>
			<path fill="#838B94" d="M42,44c0.333,0,0.667,0,1,0c0,0.667,0,1.333,0,2c-0.333,0-0.667,0-1,0C42,45.333,42,44.667,42,44z"/>
			<path fill="#3D4AF7" d="M43,44c0.333,0,0.667,0,1,0s0.667,0,1,0c0,0.333,0,0.667,0,1c0.167,0,0.333,0,0.5,0s0.333,0,0.5,0
				c0,0.333,0,0.667,0,1c0.333,0,0.667,0,1,0c0,0.333,0,0.667,0,1s0,0.667,0,1c-0.333,0-0.667,0-1,0c0,0.167,0,0.333,0,0.5
				s0,0.333,0,0.5c-1,0-2,0-3,0c0,0.167,0,0.333,0,0.5s0,0.333,0,0.5c-1.333,0-2.667,0-4,0c0-0.333,0-0.667,0-1
				c-0.167,0-0.333,0-0.5,0s-0.333,0-0.5,0c0-0.333,0-0.667,0-1c-0.333,0-0.667,0-1,0c0-0.333,0-0.667,0-1c0-0.167,0-0.333,0-0.5
				s0-0.333,0-0.5c0.667,0,1.333,0,2,0c0,0.333,0,0.667,0,1c0.5,0,1,0,1.5,0c0.25,0,0.5,0,0.75,0c0.125,0,0.25,0,0.375,0
				s0.25,0,0.375,0c0-0.167,0-0.333,0-0.5s0-0.333,0-0.5c0.333,0,0.667,0,1,0C43,45.333,43,44.667,43,44z"/>
			<path fill="#101010" d="M45,44c0.333,0,0.667,0,1,0c0,0.333,0,0.667,0,1c-0.167,0-0.333,0-0.5,0s-0.333,0-0.5,0
				C45,44.667,45,44.333,45,44z"/>
			<path fill="#08316A" d="M22,45c1.333,0,2.667,0,4,0c0,0.333,0,0.667,0,1c-0.333,0-0.667,0-1,0c-0.667,0-1.333,0-2,0
				c-0.333,0-0.667,0-1,0C22,45.667,22,45.333,22,45z"/>
			<path fill="#FFFFFF" d="M32,45c0.333,0,0.667,0,1,0c0,0.333,0,0.667,0,1c-0.333,0-0.667,0-1,0C32,45.667,32,45.333,32,45z"/>
			<path fill="#101010" d="M46,45c0.333,0,0.667,0,1,0c0,0.333,0,0.667,0,1c-0.333,0-0.667,0-1,0C46,45.667,46,45.333,46,45z"/>
			<path fill="#101010" d="M15,46c0.167,0,0.333,0,0.5,0s0.333,0,0.5,0c0,0.333,0,0.667,0,1c-0.333,0-0.667,0-1,0
				C15,46.667,15,46.333,15,46z"/>
			<path fill="#101010" d="M20,46c0.333,0,0.667,0,1,0c0,0.333,0,0.667,0,1c-0.167,0-0.333,0-0.5,0s-0.333,0-0.5,0
				C20,46.667,20,46.333,20,46z"/>
			<path fill="#838B94" d="M21,46c0.333,0,0.667,0,1,0s0.667,0,1,0c0,0.333,0,0.667,0,1c-0.667,0-1.333,0-2,0
				C21,46.667,21,46.333,21,46z"/>
			<path fill="#FFFFFF" d="M23,46c0.667,0,1.333,0,2,0c0,0.333,0,0.667,0,1c-0.667,0-1.333,0-2,0C23,46.667,23,46.333,23,46z"/>
			<path fill="#CDCDD5" d="M25,46c0.333,0,0.667,0,1,0c0,0.333,0,0.667,0,1c-0.333,0-0.667,0-1,0C25,46.667,25,46.333,25,46z"/>
			<path fill="#08316A" d="M26,46c0.333,0,0.667,0,1,0c0,0.333,0,0.667,0,1c-0.333,0-0.667,0-1,0C26,46.667,26,46.333,26,46z"/>
			<path fill="#3D4AF7" d="M31,46c0.333,0,0.667,0,1,0c0,0.333,0,0.667,0,1c0.333,0,0.667,0,1,0c0,0.333,0,0.667,0,1
				c0.667,0,1.333,0,2,0c0,0.333,0,0.667,0,1c-0.333,0-0.667,0-1,0c0,0.333,0,0.667,0,1c-0.625,0-1.25,0-1.875,0
				c-0.333,0-0.667,0-1,0c-0.292,0-0.583,0-0.875,0c-0.125,0-0.25,0-0.375,0c-0.083,0-0.167,0-0.25,0c-0.125,0-0.25,0-0.375,0
				c-0.083,0-0.167,0-0.25,0c0-0.333,0-0.667,0-1c0.333,0,0.667,0,1,0c0-0.167,0-0.333,0-0.5s0-0.333,0-0.5c0.333,0,0.667,0,1,0
				C31,47.333,31,46.667,31,46z"/>
			<path fill="#838B94" d="M32,46c0.333,0,0.667,0,1,0c0,0.333,0,0.667,0,1c-0.333,0-0.667,0-1,0C32,46.667,32,46.333,32,46z"/>
			<path fill="#FFFFFF" d="M33,46c1,0,2,0,3,0c0,0.333,0,0.667,0,1c-1,0-2,0-3,0C33,46.667,33,46.333,33,46z"/>
			<path fill="#838B94" d="M39,46c1,0,2,0,3,0c0,0.167,0,0.333,0,0.5s0,0.333,0,0.5c-0.125,0-0.25,0-0.375,0s-0.25,0-0.375,0
				c-0.25,0-0.5,0-0.75,0c-0.5,0-1,0-1.5,0C39,46.667,39,46.333,39,46z"/>
			<path fill="#101010" d="M47,46c0.333,0,0.667,0,1,0c0,0.333,0,0.667,0,1c-0.333,0-0.667,0-1,0C47,46.667,47,46.333,47,46z"/>
			<path fill="#101010" d="M58,46c0.333,0,0.667,0,1,0c0,0.333,0,0.667,0,1c-0.167,0-0.333,0-0.5,0s-0.333,0-0.5,0
				C58,46.667,58,46.333,58,46z"/>
			<path fill="#101010" d="M16,47c0.333,0,0.667,0,1,0c0,0.333,0,0.667,0,1c-0.333,0-0.667,0-1,0C16,47.667,16,47.333,16,47z"/>
			<path fill="#621000" d="M17,47c0.333,0,0.667,0,1,0c0,0.333,0,0.667,0,1c-0.333,0-0.667,0-1,0C17,47.667,17,47.333,17,47z"/>
			<path fill="#885030" d="M21,47c0.667,0,1.333,0,2,0c0,0.333,0,0.667,0,1c-0.667,0-1.333,0-2,0C21,47.667,21,47.333,21,47z"/>
			<path fill="#838B94" d="M23,47c0.667,0,1.333,0,2,0c0.333,0,0.667,0,1,0c0,1,0,2,0,3c-0.333,0-0.667,0-1,0c0-0.667,0-1.333,0-2
				c-0.167,0-0.333,0-0.5,0s-0.333,0-0.5,0s-0.333,0-0.5,0s-0.333,0-0.5,0C23,47.667,23,47.333,23,47z"/>
			<path fill="#FFFFFF" d="M26,47c0.333,0,0.667,0,1,0c0,0.333,0,0.667,0,1c0,0.667,0,1.333,0,2c-0.333,0-0.667,0-1,0
				C26,49,26,48,26,47z"/>
			<path fill="#08316A" d="M27,47c0.333,0,0.667,0,1,0c0,0.333,0,0.667,0,1c-0.333,0-0.667,0-1,0C27,47.667,27,47.333,27,47z"/>
			<path fill="#838B94" d="M33,47c1,0,2,0,3,0c0,0.333,0,0.667,0,1c-0.333,0-0.667,0-1,0c-0.667,0-1.333,0-2,0
				C33,47.667,33,47.333,33,47z"/>
			<path fill="#08316A" d="M36,47c0.333,0,0.667,0,1,0c0,0.333,0,0.667,0,1c0.333,0,0.667,0,1,0c0,0.333,0,0.667,0,1
				c0.167,0,0.333,0,0.5,0s0.333,0,0.5,0c0,0.333,0,0.667,0,1c1.333,0,2.667,0,4,0c0,0.333,0,0.667,0,1c-0.333,0-0.667,0-1,0
				c-1.333,0-2.667,0-4,0c0-0.333,0-0.667,0-1c-0.333,0-0.667,0-1,0c-1,0-2,0-3,0c0-0.333,0-0.667,0-1c0.333,0,0.667,0,1,0
				c0-0.333,0-0.667,0-1c0.333,0,0.667,0,1,0C36,47.667,36,47.333,36,47z"/>
			<path fill="#08316A" d="M47,47c0.333,0,0.667,0,1,0c0,0.333,0,0.667,0,1c-0.333,0-0.667,0-1,0C47,47.667,47,47.333,47,47z"/>
			<path fill="#101010" d="M48,47c0.167,0,0.333,0,0.5,0s0.333,0,0.5,0c0,0.333,0,0.667,0,1s0,0.667,0,1c-0.333,0-0.667,0-1,0
				c0-0.333,0-0.667,0-1S48,47.333,48,47z"/>
			<path fill="#101010" d="M59,47c0.333,0,0.667,0,1,0c0,0.333,0,0.667,0,1c-0.333,0-0.667,0-1,0C59,47.667,59,47.333,59,47z"/>
			<path fill="#101010" d="M18,48c0.667,0,1.333,0,2,0c0,0.333,0,0.667,0,1c-0.333,0-0.667,0-1,0c0,0.667,0,1.333,0,2
				c-0.333,0-0.667,0-1,0c0-0.333,0-0.667,0-1c-0.667,0-1.333,0-2,0c0-0.333,0-0.667,0-1c0.667,0,1.333,0,2,0
				c0-0.083,0-0.167,0-0.25c0-0.125,0-0.25,0-0.375S18,48.125,18,48z"/>
			<path fill="#885030" d="M20,48c0.333,0,0.667,0,1,0c0,0.333,0,0.667,0,1c-0.333,0-0.667,0-1,0C20,48.667,20,48.333,20,48z"/>
			<path fill="#E8B090" d="M21,48c0.667,0,1.333,0,2,0c0.167,0,0.333,0,0.5,0s0.333,0,0.5,0s0.333,0,0.5,0s0.333,0,0.5,0
				c0,0.667,0,1.333,0,2c0.333,0,0.667,0,1,0c0,0.333,0,0.667,0,1c-0.333,0-0.667,0-1,0c0,0.333,0,0.667,0,1c-0.667,0-1.333,0-2,0
				c0,0.167,0,0.333,0,0.5s0,0.333,0,0.5c-0.667,0-1.333,0-2,0c0-0.333,0-0.667,0-1c-0.667,0-1.333,0-2,0c0-0.333,0-0.667,0-1
				c0-0.667,0-1.333,0-2c0.333,0,0.667,0,1,0s0.667,0,1,0C21,48.667,21,48.333,21,48z"/>
			<path fill="#CDCDD5" d="M27,48c0.333,0,0.667,0,1,0c0,0.667,0,1.333,0,2c0.167,0,0.333,0,0.5,0s0.333,0,0.5,0
				c0,0.333,0,0.667,0,1c-0.667,0-1.333,0-2,0c0-0.333,0-0.667,0-1C27,49.333,27,48.667,27,48z"/>
			<path fill="#08316A" d="M28,48c0.167,0,0.333,0,0.5,0s0.333,0,0.5,0c0,0.333,0,0.667,0,1s0,0.667,0,1c-0.167,0-0.333,0-0.5,0
				s-0.333,0-0.5,0C28,49.333,28,48.667,28,48z"/>
			<path fill="#08316A" d="M47,48c0,0.333,0,0.667,0,1c-0.333,0-0.667,0-1,0c0-0.167,0-0.333,0-0.5s0-0.333,0-0.5
				C46.333,48,46.667,48,47,48z"/>
			<path fill="#838B94" d="M47,48c0.333,0,0.667,0,1,0c0,0.333,0,0.667,0,1c-0.333,0-0.667,0-1,0C47,48.667,47,48.333,47,48z"/>
			<path fill="#621000" d="M49,48c0.833,0,1.667,0,2.5,0c0.083,0,0.167,0,0.25,0c0.125,0,0.25,0,0.375,0c0.083,0,0.167,0,0.25,0
				c0.125,0,0.25,0,0.375,0c0.083,0,0.167,0,0.25,0c0.125,0,0.25,0,0.375,0c0.083,0,0.167,0,0.25,0c0.125,0,0.25,0,0.375,0
				c0.083,0,0.167,0,0.25,0c0.125,0,0.25,0,0.375,0c0.083,0,0.167,0,0.25,0c0.125,0,0.25,0,0.375,0c0.083,0,0.167,0,0.25,0
				c0.125,0,0.25,0,0.375,0c0.083,0,0.167,0,0.25,0c0.125,0,0.25,0,0.375,0c0.083,0,0.167,0,0.25,0c0.125,0,0.25,0,0.375,0
				c0.083,0,0.167,0,0.25,0c0.125,0,0.25,0,0.375,0c0.083,0,0.167,0,0.25,0c0.125,0,0.25,0,0.375,0c0.083,0,0.167,0,0.25,0
				c0.125,0,0.25,0,0.375,0c0.333,0,0.667,0,1,0c0,0.333,0,0.667,0,1c-1,0-2,0-3,0s-2,0-3,0c-0.333,0-0.667,0-1,0
				c-1.333,0-2.667,0-4,0C49,48.667,49,48.333,49,48z"/>
			<path fill="#101010" d="M60,48c0.333,0,0.667,0,1,0c0,0.333,0,0.667,0,1c-0.333,0-0.667,0-1,0C60,48.667,60,48.333,60,48z"/>
			<path fill="#3D4AF7" d="M16,49c0,0.333,0,0.667,0,1c-0.333,0-0.667,0-1,0s-0.667,0-1,0c0-0.333,0-0.667,0-1
				C14.666,49,15.333,49,16,49z"/>
			<path fill="#08316A" d="M46,49c0,0.333,0,0.667,0,1c-0.333,0-0.667,0-1,0c-0.667,0-1.333,0-2,0c0-0.167,0-0.333,0-0.5
				s0-0.333,0-0.5C44,49,45,49,46,49z"/>
			<path fill="#838B94" d="M46,49c0.333,0,0.667,0,1,0c0,0.333,0,0.667,0,1c-0.333,0-0.667,0-1,0C46,49.667,46,49.333,46,49z"/>
			<path fill="#885030" d="M47,49c0.333,0,0.667,0,1,0c0,0.333,0,0.667,0,1c0.333,0,0.667,0,1,0c0,0.667,0,1.333,0,2
				c-0.667,0-1.333,0-2,0c0-0.333,0-0.667,0-1c-0.333,0-0.667,0-1,0c0,0.167,0,0.333,0,0.5s0,0.333,0,0.5c-1,0-2,0-3,0
				c0-0.333,0-0.667,0-1c0.667,0,1.333,0,2,0c0-0.167,0-0.333,0-0.5s0-0.333,0-0.5c0.333,0,0.667,0,1,0s0.667,0,1,0
				C47,49.667,47,49.333,47,49z"/>
			<path fill="#101010" d="M53,49c0.333,0,0.667,0,1,0c0,0.333,0,0.667,0,1c-0.333,0-0.667,0-1,0C53,49.667,53,49.333,53,49z"/>
			<path fill="#08316A" d="M15,50c0.333,0,0.667,0,1,0c0,0.333,0,0.667,0,1c-0.333,0-0.667,0-1,0C15,50.667,15,50.333,15,50z"/>
			<path fill="#3D4AF7" d="M16,50c0.667,0,1.333,0,2,0c0,0.333,0,0.667,0,1c-0.667,0-1.333,0-2,0C16,50.667,16,50.333,16,50z"/>
			<path fill="#838B94" d="M26,50c0.333,0,0.667,0,1,0c0,0.333,0,0.667,0,1c-0.333,0-0.667,0-1,0C26,50.667,26,50.333,26,50z"/>
			<path fill="#08316A" d="M29,50c0.083,0,0.167,0,0.25,0c0.125,0,0.25,0,0.375,0c0.083,0,0.167,0,0.25,0c0.125,0,0.25,0,0.375,0
				c0.292,0,0.583,0,0.875,0c0.333,0,0.667,0,1,0c0.625,0,1.25,0,1.875,0c0,0.333,0,0.667,0,1c-0.333,0-0.667,0-1,0
				c-0.667,0-1.333,0-2,0s-1.333,0-2,0C29,50.667,29,50.333,29,50z"/>
			<path fill="#101010" d="M37,50c0.333,0,0.667,0,1,0c0,0.333,0,0.667,0,1c1.333,0,2.667,0,4,0c0.333,0,0.667,0,1,0
				c0,0.333,0,0.667,0,1c1,0,2,0,3,0c0-0.167,0-0.333,0-0.5s0-0.333,0-0.5c0.333,0,0.667,0,1,0c0,0.333,0,0.667,0,1
				c0.667,0,1.333,0,2,0c0,0.333,0,0.667,0,1c-0.667,0-1.333,0-2,0c0,0.167,0,0.333,0,0.5s0,0.333,0,0.5c-0.667,0-1.333,0-2,0
				s-1.333,0-2,0c0,0.125,0,0.25,0,0.375c0,0.083,0,0.167,0,0.25c0,0.125,0,0.25,0,0.375c-1.333,0-2.667,0-4,0c0-0.333,0-0.667,0-1
				c-0.125,0-0.25,0-0.375,0c-0.083,0-0.167,0-0.25,0c-0.125,0-0.25,0-0.375,0c0-0.333,0-0.667,0-1c-0.333,0-0.667,0-1,0
				C37,52,37,51,37,50z"/>
			<path fill="#838B94" d="M43,50c0.667,0,1.333,0,2,0c0,0.167,0,0.333,0,0.5s0,0.333,0,0.5c-0.667,0-1.333,0-2,0
				C43,50.667,43,50.333,43,50z"/>
			<path fill="#101010" d="M54,50c1,0,2,0,3,0c0,0.333,0,0.667,0,1c-0.333,0-0.667,0-1,0c0,0.167,0,0.333,0,0.5s0,0.333,0,0.5
				c-0.333,0-0.667,0-1,0c0-0.333,0-0.667,0-1c-0.125,0-0.25,0-0.375,0c-0.083,0-0.167,0-0.25,0c-0.125,0-0.25,0-0.375,0
				C54,50.667,54,50.333,54,50z"/>
			<path fill="#08316A" d="M58,51c0-0.333,0-0.667,0-1c0.333,0,0.667,0,1,0c0,0.333,0,0.667,0,1C58.667,51,58.333,51,58,51z"/>
			<path fill="#885030" d="M15,51c0,0.333,0,0.667,0,1c-0.333,0-0.667,0-1,0c0-0.333,0-0.667,0-1C14.333,51,14.666,51,15,51z"/>
			<path fill="#CDCDD5" d="M15,51c0.333,0,0.667,0,1,0c0,0.333,0,0.667,0,1s0,0.667,0,1c-0.333,0-0.667,0-1,0c0,0.167,0,0.333,0,0.5
				s0,0.333,0,0.5c-0.333,0-0.667,0-1,0c0-0.333,0-0.667,0-1s0-0.667,0-1c0.333,0,0.667,0,1,0C15,51.667,15,51.333,15,51z"/>
			<path fill="#08316A" d="M16,51c0.667,0,1.333,0,2,0c0.333,0,0.667,0,1,0c0,0.333,0,0.667,0,1c-0.333,0-0.667,0-1,0
				c-0.667,0-1.333,0-2,0C16,51.667,16,51.333,16,51z"/>
			<path fill="#101010" d="M26,51c0.333,0,0.667,0,1,0c0,0.333,0,0.667,0,1c-0.667,0-1.333,0-2,0c0-0.333,0-0.667,0-1
				C25.333,51,25.666,51,26,51z"/>
			<path fill="#838B94" d="M27,51c0.667,0,1.333,0,2,0c0,0.333,0,0.667,0,1c-0.667,0-1.333,0-2,0C27,51.667,27,51.333,27,51z"/>
			<path fill="#CDCDD5" d="M29,51c0.667,0,1.333,0,2,0c0,0.333,0,0.667,0,1c-0.667,0-1.333,0-2,0C29,51.667,29,51.333,29,51z"/>
			<path fill="#838B94" d="M31,51c0.667,0,1.333,0,2,0c0,0.333,0,0.667,0,1c-0.667,0-1.333,0-2,0C31,51.667,31,51.333,31,51z"/>
			<path fill="#3D4AF7" d="M57,51c0,0.333,0,0.667,0,1c-0.333,0-0.667,0-1,0c0-0.167,0-0.333,0-0.5s0-0.333,0-0.5
				C56.333,51,56.667,51,57,51z"/>
			<path fill="#08316A" d="M57,51c0.333,0,0.667,0,1,0c0,0.333,0,0.667,0,1c-0.333,0-0.667,0-1,0C57,51.667,57,51.333,57,51z"/>
			<path fill="#885030" d="M14,52c0,0.333,0,0.667,0,1c-0.333,0-0.667,0-1,0c0-0.333,0-0.667,0-1C13.333,52,13.666,52,14,52z"/>
			<path fill="#838B94" d="M16,52c0.667,0,1.333,0,2,0c0,0.333,0,0.667,0,1c-0.667,0-1.333,0-2,0C16,52.667,16,52.333,16,52z"/>
			<path fill="#E8B090" d="M18,52c0.333,0,0.667,0,1,0c0,0.333,0,0.667,0,1c0.333,0,0.667,0,1,0c0,0.333,0,0.667,0,1
				c-0.333,0-0.667,0-1,0c0,0.333,0,0.667,0,1c-0.667,0-1.333,0-2,0c0,0.167,0,0.333,0,0.5s0,0.333,0,0.5c-0.333,0-0.667,0-1,0
				c0,0.333,0,0.667,0,1c-0.333,0-0.667,0-1,0c-1,0-2,0-3,0c0-0.333,0-0.667,0-1c-0.167,0-0.333,0-0.5,0s-0.333,0-0.5,0
				c0-0.333,0-0.667,0-1c0.333,0,0.667,0,1,0c0-0.333,0-0.667,0-1c0.333,0,0.667,0,1,0c0,0.333,0,0.667,0,1s0,0.667,0,1
				c0.125,0,0.25,0,0.375,0c0.167,0,0.333,0,0.5,0c0.042,0,0.083,0,0.125,0c0-0.167,0-0.333,0-0.5s0-0.333,0-0.5
				c0.333,0,0.667,0,1,0c0-0.167,0-0.333,0-0.5s0-0.333,0-0.5c0.333,0,0.667,0,1,0c0-0.333,0-0.667,0-1c0.667,0,1.333,0,2,0
				C18,52.667,18,52.333,18,52z"/>
			<path fill="#F8D8C8" d="M19,52c0.667,0,1.333,0,2,0c0,0.333,0,0.667,0,1s0,0.667,0,1c-0.333,0-0.667,0-1,0c0-0.333,0-0.667,0-1
				c-0.333,0-0.667,0-1,0C19,52.667,19,52.333,19,52z"/>
			<path fill="#101010" d="M25,52c0,0.333,0,0.667,0,1c-0.667,0-1.333,0-2,0c0-0.167,0-0.333,0-0.5s0-0.333,0-0.5
				C23.666,52,24.333,52,25,52z"/>
			<path fill="#838B94" d="M29,52c0.667,0,1.333,0,2,0c0,0.333,0,0.667,0,1c-0.667,0-1.333,0-2,0C29,52.667,29,52.333,29,52z"/>
			<path fill="#3D4AF7" d="M55,52c0.333,0,0.667,0,1,0c0,0.333,0,0.667,0,1c-0.333,0-0.667,0-1,0C55,52.667,55,52.333,55,52z"/>
			<path fill="#08316A" d="M56,52c0.333,0,0.667,0,1,0c0,0.333,0,0.667,0,1c-0.333,0-0.667,0-1,0C56,52.667,56,52.333,56,52z"/>
			<path fill="#CDCDD5" d="M57,52c0.333,0,0.667,0,1,0c0,0.333,0,0.667,0,1c-0.333,0-0.667,0-1,0C57,52.667,57,52.333,57,52z"/>
			<path fill="#885030" d="M13,53c0,0.333,0,0.667,0,1c-0.333,0-0.667,0-1,0c0-0.333,0-0.667,0-1C12.333,53,12.666,53,13,53z"/>
			<path fill="#E8B090" d="M13,53c0.333,0,0.667,0,1,0c0,0.333,0,0.667,0,1c-0.333,0-0.667,0-1,0C13,53.667,13,53.333,13,53z"/>
			<path fill="#838B94" d="M16,53c0,0.333,0,0.667,0,1c-0.333,0-0.667,0-1,0c0-0.167,0-0.333,0-0.5s0-0.333,0-0.5
				C15.333,53,15.666,53,16,53z"/>
			<path fill="#101010" d="M21,53c0.667,0,1.333,0,2,0c0,0.333,0,0.667,0,1c-0.667,0-1.333,0-2,0C21,53.667,21,53.333,21,53z"/>
			<path fill="#3D4AF7" d="M49,53c0,0.333,0,0.667,0,1c-0.667,0-1.333,0-2,0c0-0.167,0-0.333,0-0.5s0-0.333,0-0.5
				C47.667,53,48.333,53,49,53z"/>
			<path fill="#08316A" d="M49,53c0.667,0,1.333,0,2,0c0,0.333,0,0.667,0,1c-0.667,0-1.333,0-2,0C49,53.667,49,53.333,49,53z"/>
			<path fill="#3D4AF7" d="M55,53c0,0.333,0,0.667,0,1c-0.333,0-0.667,0-1,0c0-0.333,0-0.667,0-1C54.333,53,54.667,53,55,53z"/>
			<path fill="#08316A" d="M55,53c0.333,0,0.667,0,1,0c0,0.333,0,0.667,0,1c-0.333,0-0.667,0-1,0C55,53.667,55,53.333,55,53z"/>
			<path fill="#838B94" d="M56,53c0.333,0,0.667,0,1,0s0.667,0,1,0c0,0.333,0,0.667,0,1c-0.667,0-1.333,0-2,0
				C56,53.667,56,53.333,56,53z"/>
			<path fill="#CDCDD5" d="M58,53c0.667,0,1.333,0,2,0c0,0.333,0,0.667,0,1c-0.667,0-1.333,0-2,0C58,53.667,58,53.333,58,53z"/>
			<path fill="#885030" d="M12,54c0,0.333,0,0.667,0,1c-0.333,0-0.667,0-1,0c0-0.333,0-0.667,0-1C11.333,54,11.666,54,12,54z"/>
			<path fill="#CDCDD5" d="M13,54c0.333,0,0.667,0,1,0c0,0.333,0,0.667,0,1c-0.333,0-0.667,0-1,0C13,54.667,13,54.333,13,54z"/>
			<path fill="#838B94" d="M14,54c0.333,0,0.667,0,1,0c0,0.167,0,0.333,0,0.5s0,0.333,0,0.5c-0.333,0-0.667,0-1,0
				C14,54.667,14,54.333,14,54z"/>
			<path fill="#101010" d="M20,54c0.333,0,0.667,0,1,0c0,0.333,0,0.667,0,1c-0.667,0-1.333,0-2,0c0-0.333,0-0.667,0-1
				C19.333,54,19.666,54,20,54z"/>
			<path fill="#3D4AF7" d="M45,54c0.667,0,1.333,0,2,0c0,0.333,0,0.667,0,1c-0.667,0-1.333,0-2,0C45,54.667,45,54.333,45,54z"/>
			<path fill="#08316A" d="M47,54c0.667,0,1.333,0,2,0c0,0.333,0,0.667,0,1c-0.333,0-0.667,0-1,0s-0.667,0-1,0
				C47,54.667,47,54.333,47,54z"/>
			<path fill="#838B94" d="M58,54c0.667,0,1.333,0,2,0c0,0.333,0,0.667,0,1c-0.667,0-1.333,0-2,0C58,54.667,58,54.333,58,54z"/>
			<path fill="#CDCDD5" d="M60,54c0.333,0,0.667,0,1,0c0,0.333,0,0.667,0,1c-0.333,0-0.667,0-1,0C60,54.667,60,54.333,60,54z"/>
			<path fill="#08316A" d="M11,55c0,0.333,0,0.667,0,1s0,0.667,0,1c0.167,0,0.333,0,0.5,0s0.333,0,0.5,0c0,0.333,0,0.667,0,1
				c-0.667,0-1.333,0-2,0c0-1,0-2,0-3C10.333,55,10.666,55,11,55z"/>
			<path fill="#838B94" d="M13,55c0.333,0,0.667,0,1,0c0,0.167,0,0.333,0,0.5s0,0.333,0,0.5c-0.042,0-0.083,0-0.125,0
				c-0.167,0-0.333,0-0.5,0c-0.125,0-0.25,0-0.375,0C13,55.667,13,55.333,13,55z"/>
			<path fill="#101010" d="M19,55c0,0.333,0,0.667,0,1c-0.667,0-1.333,0-2,0c0-0.167,0-0.333,0-0.5s0-0.333,0-0.5
				C17.666,55,18.333,55,19,55z"/>
			<path fill="#838B94" d="M47,55c0.333,0,0.667,0,1,0c0,0.333,0,0.667,0,1c-0.333,0-0.667,0-1,0C47,55.667,47,55.333,47,55z"/>
			<path fill="#CDCDD5" d="M48,55c0.333,0,0.667,0,1,0c0,0.333,0,0.667,0,1c-0.333,0-0.667,0-1,0C48,55.667,48,55.333,48,55z"/>
			<path fill="#838B94" d="M60,55c0.333,0,0.667,0,1,0s0.667,0,1,0c0,0.333,0,0.667,0,1c-0.667,0-1.333,0-2,0
				C60,55.667,60,55.333,60,55z"/>
			<path fill="#3D4AF7" d="M11,56c0.167,0,0.333,0,0.5,0s0.333,0,0.5,0c0,0.333,0,0.667,0,1c-0.167,0-0.333,0-0.5,0s-0.333,0-0.5,0
				C11,56.667,11,56.333,11,56z"/>
			<path fill="#101010" d="M17,56c0,0.333,0,0.667,0,1c-0.333,0-0.667,0-1,0c0-0.333,0-0.667,0-1C16.333,56,16.666,56,17,56z"/>
			<path fill="#838B94" d="M48,56c0.333,0,0.667,0,1,0c0,0.333,0,0.667,0,1c-0.333,0-0.667,0-1,0C48,56.667,48,56.333,48,56z"/>
			<path fill="#CDCDD5" d="M49,56c0.333,0,0.667,0,1,0c0,0.333,0,0.667,0,1c-0.333,0-0.667,0-1,0C49,56.667,49,56.333,49,56z"/>
			<path fill="#3D4AF7" d="M12,57c1,0,2,0,3,0c0,0.333,0,0.667,0,1c-1,0-2,0-3,0C12,57.667,12,57.333,12,57z"/>
			<path fill="#101010" d="M15,57c0.333,0,0.667,0,1,0c0,0.667,0,1.333,0,2c-0.125,0-0.25,0-0.375,0s-0.25,0-0.375,0
				c-0.25,0-0.5,0-0.75,0c-0.75,0-1.5,0-2.25,0s-1.5,0-2.25,0c0-0.333,0-0.667,0-1c0.667,0,1.333,0,2,0c1,0,2,0,3,0
				C15,57.667,15,57.333,15,57z"/>
			<path fill="#838B94" d="M49,57c0.333,0,0.667,0,1,0c0,0.333,0,0.667,0,1c-0.333,0-0.667,0-1,0C49,57.667,49,57.333,49,57z"/>
			<path fill="#838B94" d="M50,58c0.333,0,0.667,0,1,0c0,0.333,0,0.667,0,1c-0.333,0-0.667,0-1,0C50,58.667,50,58.333,50,58z"/>
		</g>
	</g>
</g>
</svg>
